<svg xmlns="http://www.w3.org/2000/svg" viewBox="0 0 512 512"><defs><style>.cls-1,.cls-2{fill:none;stroke:#fff;stroke-width:21.65px;}.cls-1{stroke-miterlimit:10;}.cls-2{stroke-linecap:round;stroke-linejoin:round;}</style></defs><g id="Layer_2" data-name="Layer 2"><path class="cls-1" d="M305.81,481.84a44.18,44.18,0,0,1-67.49-15.31A239.7,239.7,0,0,0,208.62,420C149.07,345.7,112,348.55,55.88,278.42a179.33,179.33,0,0,1-26.62-45.89,67.27,67.27,0,0,1,20.48-77.34L206,30.17a44.26,44.26,0,0,1,62.22,6.88,43.77,43.77,0,0,1,5.86,9.61,178.7,178.7,0,0,0,23.46,38.47c56.13,70.11,93.28,67.26,152.74,141.56a235.27,235.27,0,0,1,31.26,49.91,67.17,67.17,0,0,1-19.27,80.12Z"/><line class="cls-2" x1="158.79" y1="264.93" x2="272.07" y2="174.27"/><line class="cls-2" x1="196.84" y1="290" x2="310.12" y2="199.34"/><line class="cls-2" x1="233.95" y1="316.01" x2="347.24" y2="225.35"/><line class="cls-2" x1="259.96" y1="353.12" x2="373.24" y2="262.46"/><line class="cls-2" x1="184.79" y1="94.66" x2="231.03" y2="57.66"/><line class="cls-2" x1="198.36" y1="129.47" x2="244.59" y2="92.47"/></g></svg>