<svg xmlns="http://www.w3.org/2000/svg" xmlns:xlink="http://www.w3.org/1999/xlink" viewBox="0 0 540.55 674.76"><defs><style>.cls-1{isolation:isolate;}.cls-2{fill:#ff7752;}.cls-3{fill:url(#radial-gradient);}.cls-4,.cls-50,.cls-51{mix-blend-mode:screen;}.cls-5{fill:url(#radial-gradient-2);}.cls-49,.cls-6{fill:#a4202e;}.cls-7{fill:#fb9644;}.cls-8{fill:#f76244;}.cls-9{fill:#bababa;}.cls-10{fill:url(#linear-gradient);}.cls-11{fill:url(#linear-gradient-2);}.cls-12{fill:url(#linear-gradient-3);}.cls-13{fill:url(#linear-gradient-4);}.cls-14{fill:url(#linear-gradient-5);}.cls-15{fill:url(#linear-gradient-6);}.cls-16{fill:url(#linear-gradient-7);}.cls-17{fill:url(#linear-gradient-8);}.cls-18{fill:#cfcfcf;}.cls-19{fill:url(#linear-gradient-9);}.cls-20{fill:url(#linear-gradient-10);}.cls-21{fill:url(#linear-gradient-11);}.cls-22{fill:url(#linear-gradient-12);}.cls-23{fill:url(#linear-gradient-13);}.cls-24{fill:url(#linear-gradient-14);}.cls-25{fill:url(#linear-gradient-15);}.cls-26{fill:url(#radial-gradient-3);}.cls-27{fill:url(#linear-gradient-16);}.cls-28{fill:#322b6f;}.cls-29{fill:#fc753e;}.cls-30{fill:url(#linear-gradient-17);}.cls-31{fill:url(#linear-gradient-18);}.cls-32{fill:#95635a;}.cls-33{fill:url(#linear-gradient-19);}.cls-34{fill:url(#radial-gradient-4);}.cls-35{fill:url(#radial-gradient-5);}.cls-36{fill:url(#linear-gradient-20);}.cls-37{fill:url(#linear-gradient-21);}.cls-38{fill:#5d322c;}.cls-39{fill:url(#linear-gradient-22);}.cls-40,.cls-49{opacity:0.35;mix-blend-mode:multiply;}.cls-40{fill:url(#radial-gradient-6);}.cls-41{fill:url(#linear-gradient-23);}.cls-42{fill:url(#radial-gradient-7);}.cls-43{fill:url(#radial-gradient-8);}.cls-44{fill:url(#linear-gradient-24);}.cls-45{fill:url(#linear-gradient-25);}.cls-46{fill:url(#linear-gradient-26);}.cls-47{fill:url(#linear-gradient-27);}.cls-48{fill:url(#radial-gradient-9);}.cls-50{fill:url(#linear-gradient-28);}.cls-51{fill:url(#linear-gradient-29);}.cls-52{fill:#75202e;}.cls-53{fill:#fff;}.cls-54{fill:url(#linear-gradient-30);}.cls-55{fill:url(#linear-gradient-31);}.cls-56{fill:url(#linear-gradient-32);}.cls-57{fill:url(#linear-gradient-33);}.cls-58{fill:url(#radial-gradient-10);}.cls-59{fill:url(#linear-gradient-34);}.cls-60{fill:url(#linear-gradient-35);}.cls-61{fill:#ffb363;}.cls-62{fill:url(#linear-gradient-36);}</style><radialGradient id="radial-gradient" cx="215.54" cy="340.86" r="626.19" gradientTransform="translate(0 130.58) scale(1 0.62)" gradientUnits="userSpaceOnUse"><stop offset="0" stop-color="#e64026"/><stop offset="0.12" stop-color="#e7462c"/><stop offset="0.28" stop-color="#e9573e"/><stop offset="0.46" stop-color="#ee735c"/><stop offset="0.67" stop-color="#f49a85"/><stop offset="0.89" stop-color="#fbcbb9"/><stop offset="1" stop-color="#ffe5d4"/></radialGradient><radialGradient id="radial-gradient-2" cx="292.77" cy="123.07" r="129.88" gradientTransform="matrix(1, 0, 0, 1, 0, 0)" xlink:href="#radial-gradient"/><linearGradient id="linear-gradient" x1="273.84" y1="348.24" x2="131.22" y2="389.16" gradientUnits="userSpaceOnUse"><stop offset="0.01" stop-color="#d7d7de"/><stop offset="0.11" stop-color="#e2dbdb"/><stop offset="0.31" stop-color="#f2e1d7"/><stop offset="0.53" stop-color="#fce4d5"/><stop offset="0.82" stop-color="#ffe5d4"/><stop offset="0.85" stop-color="#ffe5d4"/><stop offset="1" stop-color="#ffe5d4"/></linearGradient><linearGradient id="linear-gradient-2" x1="371.34" y1="330.82" x2="435.88" y2="304.06" xlink:href="#linear-gradient"/><linearGradient id="linear-gradient-3" x1="285.5" y1="375.3" x2="407.03" y2="298.48" gradientUnits="userSpaceOnUse"><stop offset="0.01" stop-color="#d7d7de"/><stop offset="0.08" stop-color="#e6e6ea"/><stop offset="0.18" stop-color="#f4f4f6"/><stop offset="0.31" stop-color="#fdfdfd"/><stop offset="0.52" stop-color="#fff"/><stop offset="0.78" stop-color="#fffefd"/><stop offset="0.87" stop-color="#fffaf6"/><stop offset="0.93" stop-color="#fff3eb"/><stop offset="0.99" stop-color="#ffe9da"/><stop offset="1" stop-color="#ffe5d4"/></linearGradient><linearGradient id="linear-gradient-4" x1="254.41" y1="326.13" x2="182" y2="415.54" xlink:href="#linear-gradient-3"/><linearGradient id="linear-gradient-5" x1="315.02" y1="356.29" x2="190.18" y2="330.83" gradientUnits="userSpaceOnUse"><stop offset="0.55" stop-color="#d7d7de"/><stop offset="0.79" stop-color="#d9d9e0"/><stop offset="0.88" stop-color="#e0e0e5"/><stop offset="0.94" stop-color="#ebebef"/><stop offset="0.99" stop-color="#fcfcfd"/><stop offset="1" stop-color="#fff"/></linearGradient><linearGradient id="linear-gradient-6" x1="373.99" y1="342.4" x2="477.47" y2="283.27" xlink:href="#linear-gradient-3"/><linearGradient id="linear-gradient-7" x1="274.27" y1="79.54" x2="333.49" y2="79.54" gradientUnits="userSpaceOnUse"><stop offset="0.01" stop-color="#d7d7de"/><stop offset="0.1" stop-color="#dcdce2"/><stop offset="0.66" stop-color="#f5f5f7"/><stop offset="1" stop-color="#fff"/></linearGradient><linearGradient id="linear-gradient-8" x1="294.96" y1="69.08" x2="328.6" y2="69.08" xlink:href="#linear-gradient-7"/><linearGradient id="linear-gradient-9" x1="289.9" y1="314.98" x2="163.05" y2="251.56" xlink:href="#linear-gradient-7"/><linearGradient id="linear-gradient-10" x1="219.83" y1="271.45" x2="256.59" y2="271.45" xlink:href="#linear-gradient"/><linearGradient id="linear-gradient-11" x1="157.3" y1="43.37" x2="224.03" y2="43.37" xlink:href="#linear-gradient-7"/><linearGradient id="linear-gradient-12" x1="53.98" y1="197.89" x2="104.75" y2="197.89" xlink:href="#linear-gradient-7"/><linearGradient id="linear-gradient-13" x1="373.48" y1="269.25" x2="426.41" y2="269.25" xlink:href="#linear-gradient-7"/><linearGradient id="linear-gradient-14" x1="168.14" y1="94.45" x2="195.37" y2="94.45" xlink:href="#linear-gradient-7"/><linearGradient id="linear-gradient-15" x1="149.22" y1="134.53" x2="98.22" y2="80.23" gradientUnits="userSpaceOnUse"><stop offset="0" stop-color="#ffb363"/><stop offset="0.07" stop-color="#f09b5a"/><stop offset="0.2" stop-color="#d56f4b"/><stop offset="0.34" stop-color="#c04d3e"/><stop offset="0.46" stop-color="#b03435"/><stop offset="0.58" stop-color="#a72530"/><stop offset="0.67" stop-color="#a4202e"/></linearGradient><radialGradient id="radial-gradient-3" cx="139.91" cy="131.08" r="24.01" gradientTransform="translate(19.67 33.36) rotate(13.66) scale(1 0.51)" gradientUnits="userSpaceOnUse"><stop offset="0" stop-color="#ffe5d4"/><stop offset="0.19" stop-color="#fedcba"/><stop offset="0.59" stop-color="#fdc577"/><stop offset="0.93" stop-color="#fbb03b"/></radialGradient><linearGradient id="linear-gradient-16" x1="155.05" y1="124.95" x2="173.62" y2="116.13" gradientUnits="userSpaceOnUse"><stop offset="0.2" stop-color="#ff7d68"/><stop offset="0.51" stop-color="#fd9f83"/><stop offset="0.82" stop-color="#fbba99"/><stop offset="1" stop-color="#fac4a1"/></linearGradient><linearGradient id="linear-gradient-17" x1="169.19" y1="173" x2="156.28" y2="139" gradientUnits="userSpaceOnUse"><stop offset="0" stop-color="#ffb363"/><stop offset="0.07" stop-color="#ed9b5a"/><stop offset="0.2" stop-color="#cd6f4b"/><stop offset="0.34" stop-color="#b44d3e"/><stop offset="0.46" stop-color="#a23435"/><stop offset="0.58" stop-color="#972530"/><stop offset="0.67" stop-color="#93202e"/></linearGradient><linearGradient id="linear-gradient-18" x1="177.67" y1="132.1" x2="179.88" y2="180.26" gradientUnits="userSpaceOnUse"><stop offset="0.2" stop-color="#ff7d68"/><stop offset="0.23" stop-color="#fe8972"/><stop offset="0.3" stop-color="#fd9f83"/><stop offset="0.38" stop-color="#fbb091"/><stop offset="0.48" stop-color="#fbbb9a"/><stop offset="0.62" stop-color="#fac29f"/><stop offset="1" stop-color="#fac4a1"/></linearGradient><linearGradient id="linear-gradient-19" x1="123.39" y1="112.42" x2="130.47" y2="112.42" gradientUnits="userSpaceOnUse"><stop offset="0.05" stop-color="#ff7d4d"/><stop offset="0.09" stop-color="#fe8454"/><stop offset="0.26" stop-color="#fc9869"/><stop offset="0.45" stop-color="#faa778"/><stop offset="0.67" stop-color="#f9af81"/><stop offset="1" stop-color="#f9b284"/></linearGradient><radialGradient id="radial-gradient-4" cx="136.74" cy="100.93" r="32.61" gradientUnits="userSpaceOnUse"><stop offset="0" stop-color="#fac4a1"/><stop offset="0.28" stop-color="#fac29f"/><stop offset="0.38" stop-color="#fbbb9a"/><stop offset="0.45" stop-color="#fbb091"/><stop offset="0.51" stop-color="#fd9f83"/><stop offset="0.56" stop-color="#fe8972"/><stop offset="0.58" stop-color="#ff7d68"/></radialGradient><radialGradient id="radial-gradient-5" cx="134.52" cy="162.47" r="27.15" gradientTransform="matrix(1, 0, 0, 1, 0, 0)" xlink:href="#radial-gradient-3"/><linearGradient id="linear-gradient-20" x1="151.1" y1="181.35" x2="156.14" y2="149.86" xlink:href="#linear-gradient-15"/><linearGradient id="linear-gradient-21" x1="236.02" y1="184.03" x2="199.19" y2="237.72" gradientUnits="userSpaceOnUse"><stop offset="0.15" stop-color="#ff7d68"/><stop offset="0.18" stop-color="#fe8972"/><stop offset="0.25" stop-color="#fd9f83"/><stop offset="0.34" stop-color="#fbb091"/><stop offset="0.44" stop-color="#fbbb9a"/><stop offset="0.59" stop-color="#fac29f"/><stop offset="1" stop-color="#fac4a1"/></linearGradient><linearGradient id="linear-gradient-22" x1="138.48" y1="123.14" x2="112.51" y2="69.78" xlink:href="#linear-gradient-15"/><radialGradient id="radial-gradient-6" cx="126.26" cy="144.75" r="7.28" gradientTransform="matrix(1, 0, 0, 1, 0, 0)" xlink:href="#radial-gradient-3"/><linearGradient id="linear-gradient-23" x1="89.67" y1="161.05" x2="133.78" y2="161.05" gradientUnits="userSpaceOnUse"><stop offset="0" stop-color="#fac4a1"/><stop offset="0.18" stop-color="#fbba99"/><stop offset="0.49" stop-color="#fd9f83"/><stop offset="0.8" stop-color="#ff7d68"/></linearGradient><radialGradient id="radial-gradient-7" cx="126.41" cy="156.26" r="24.62" gradientTransform="matrix(1, 0, 0, 1, 0, 0)" xlink:href="#radial-gradient-3"/><radialGradient id="radial-gradient-8" cx="302.25" cy="205.28" r="61.34" gradientUnits="userSpaceOnUse"><stop offset="0" stop-color="#ffb363"/><stop offset="0" stop-color="#feb162"/><stop offset="0.13" stop-color="#d67c49"/><stop offset="0.26" stop-color="#b54f35"/><stop offset="0.37" stop-color="#9b2d25"/><stop offset="0.49" stop-color="#891419"/><stop offset="0.59" stop-color="#7e0512"/><stop offset="0.67" stop-color="#7a0010"/></radialGradient><linearGradient id="linear-gradient-24" x1="261" y1="234.84" x2="322.89" y2="234.84" gradientUnits="userSpaceOnUse"><stop offset="0" stop-color="#c2726e"/><stop offset="0.08" stop-color="#ac6460"/><stop offset="0.24" stop-color="#8a4e49"/><stop offset="0.38" stop-color="#713f39"/><stop offset="0.51" stop-color="#62352f"/><stop offset="0.62" stop-color="#5d322c"/><stop offset="0.99" stop-color="#3c0700"/></linearGradient><linearGradient id="linear-gradient-25" x1="282.32" y1="258.43" x2="339.07" y2="258.43" gradientUnits="userSpaceOnUse"><stop offset="0" stop-color="#c2726e"/><stop offset="0.03" stop-color="#b36864"/><stop offset="0.1" stop-color="#985853"/><stop offset="0.17" stop-color="#824a44"/><stop offset="0.26" stop-color="#713f39"/><stop offset="0.37" stop-color="#663732"/><stop offset="0.53" stop-color="#5f332d"/><stop offset="0.96" stop-color="#5d322c"/></linearGradient><linearGradient id="linear-gradient-26" x1="317.13" y1="171.76" x2="358.85" y2="150.35" xlink:href="#linear-gradient-15"/><linearGradient id="linear-gradient-27" x1="348.24" y1="143.68" x2="310.46" y2="161.15" gradientUnits="userSpaceOnUse"><stop offset="0.32" stop-color="#ff7d68"/><stop offset="0.54" stop-color="#fe8268"/><stop offset="0.8" stop-color="#fb9169"/><stop offset="1" stop-color="#f7a169"/></linearGradient><radialGradient id="radial-gradient-9" cx="301.65" cy="187.98" r="90.58" xlink:href="#linear-gradient-15"/><linearGradient id="linear-gradient-28" x1="278.23" y1="168.37" x2="358.41" y2="138.31" gradientUnits="userSpaceOnUse"><stop offset="0" stop-color="#fff"/><stop offset="0.03" stop-color="#fcfcfc" stop-opacity="0.92"/><stop offset="0.09" stop-color="#f4f4f6" stop-opacity="0.73"/><stop offset="0.17" stop-color="#ededf0" stop-opacity="0.55"/><stop offset="0.24" stop-color="#e7e7eb" stop-opacity="0.4"/><stop offset="0.33" stop-color="#e2e2e7" stop-opacity="0.28"/><stop offset="0.42" stop-color="#dedee4" stop-opacity="0.18"/><stop offset="0.51" stop-color="#dbdbe1" stop-opacity="0.1"/><stop offset="0.62" stop-color="#d9d9df" stop-opacity="0.04"/><stop offset="0.76" stop-color="#d7d7de" stop-opacity="0.01"/><stop offset="0.99" stop-color="#d7d7de" stop-opacity="0"/></linearGradient><linearGradient id="linear-gradient-29" x1="300.26" y1="186.06" x2="275.39" y2="167.32" gradientUnits="userSpaceOnUse"><stop offset="0" stop-color="#fff"/><stop offset="0.21" stop-color="#f4f4f6" stop-opacity="0.71"/><stop offset="0.42" stop-color="#e9e9ed" stop-opacity="0.46"/><stop offset="0.61" stop-color="#e1e1e7" stop-opacity="0.26"/><stop offset="0.77" stop-color="#dcdce2" stop-opacity="0.12"/><stop offset="0.9" stop-color="#d8d8df" stop-opacity="0.03"/><stop offset="0.99" stop-color="#d7d7de" stop-opacity="0"/></linearGradient><linearGradient id="linear-gradient-30" x1="316.92" y1="168.67" x2="358.63" y2="147.26" gradientUnits="userSpaceOnUse"><stop offset="0" stop-color="#ffb363"/><stop offset="0.07" stop-color="#e79b5a"/><stop offset="0.2" stop-color="#bc6f4b"/><stop offset="0.34" stop-color="#9a4d3e"/><stop offset="0.46" stop-color="#813435"/><stop offset="0.58" stop-color="#722530"/><stop offset="0.67" stop-color="#6d202e"/></linearGradient><linearGradient id="linear-gradient-31" x1="357.73" y1="146.28" x2="320.18" y2="170.36" gradientUnits="userSpaceOnUse"><stop offset="0.32" stop-color="#ff7d68"/><stop offset="0.49" stop-color="#fe826b"/><stop offset="0.71" stop-color="#fd9173"/><stop offset="0.94" stop-color="#faaa80"/><stop offset="1" stop-color="#f9b284"/></linearGradient><linearGradient id="linear-gradient-32" x1="339.7" y1="172.68" x2="381.42" y2="151.28" gradientUnits="userSpaceOnUse"><stop offset="0" stop-color="#ffb363"/><stop offset="0.03" stop-color="#f09b5a"/><stop offset="0.1" stop-color="#d56f4b"/><stop offset="0.16" stop-color="#c04d3e"/><stop offset="0.22" stop-color="#b03435"/><stop offset="0.27" stop-color="#a72530"/><stop offset="0.31" stop-color="#a4202e"/></linearGradient><linearGradient id="linear-gradient-33" x1="350.78" y1="145.2" x2="339.69" y2="155.35" xlink:href="#linear-gradient-31"/><radialGradient id="radial-gradient-10" cx="330.54" cy="142.27" r="30.89" gradientUnits="userSpaceOnUse"><stop offset="0" stop-color="#f9b284"/><stop offset="0.19" stop-color="#f9ae82"/><stop offset="0.37" stop-color="#fba37c"/><stop offset="0.55" stop-color="#fd9072"/><stop offset="0.68" stop-color="#ff7d68"/></radialGradient><linearGradient id="linear-gradient-34" x1="333.48" y1="138.79" x2="360.34" y2="124.02" xlink:href="#linear-gradient-25"/><linearGradient id="linear-gradient-35" x1="335.48" y1="162.13" x2="377.19" y2="140.72" gradientUnits="userSpaceOnUse"><stop offset="0" stop-color="#ffb363"/><stop offset="0.07" stop-color="#f09b5a"/><stop offset="0.23" stop-color="#d56f4b"/><stop offset="0.37" stop-color="#c04d3e"/><stop offset="0.51" stop-color="#b03435"/><stop offset="0.64" stop-color="#a72530"/><stop offset="0.75" stop-color="#a4202e"/></linearGradient><linearGradient id="linear-gradient-36" x1="152.98" y1="149.86" x2="152.98" y2="149.86" xlink:href="#linear-gradient-7"/></defs><title>background</title><g class="cls-1"><g id="OBJECTS"><polygon class="cls-2" points="0 0 540.55 0 540.55 449.28 0 674.76 0 0"/><path class="cls-3" d="M462.39,280.75c-3.93,10.39-12.74,20.4-24.08,19.89-10-.44-20-8.9-29-4.87-10.14,4.55-7.87,19.09-6.76,30.21,2.26,22.65-8.05,45.76-26.31,58.95-8.44,6.1-19.19,10.22-29.58,7.8-6.37-1.49-12-5.26-18-7.75-17.05-7-36.25-3.48-53.55,1.79s-34.5,12.28-52.76,12a70,70,0,0,1-44.18-17.12c-10.83-9.44-18.76-22.23-31.07-29.64-11.75-7.08-25.88-8.3-39-12.12s-26.91-12.11-29.68-25.33c-3.73-17.83,14.29-33.12,13.89-51.22-.17-7.8-3.78-15.15-6.44-22.57-6-16.61-7.31-34.94-2.23-51.5s16.91-31.11,32.86-38.11c7.93-3.48,16.9-5.21,24.22-9.57a31.25,31.25,0,0,0,4.07-2.89,29.15,29.15,0,0,0,5.57-6.31c6.59-10,7.84-23.5,10.74-35.56,8.6-35.67,37.65-65.49,73.67-74.12S312.2,27.54,336,56.72l-.23.13c20.91,3,41.9,7.9,60.66,17.91,44.7,23.86,31.73,76.5,28.6,81.55-4.52,7.32-2.88,17.17,1.39,24.9s10.81,14,16.55,20.74c.64.75,1.27,1.52,1.89,2.3A104,104,0,0,1,457.38,224C466.19,242.12,469.28,262.57,462.39,280.75Z"/><g class="cls-4"><path class="cls-5" d="M444.87,204.25c-21.05-5.45-43.86-.95-64.65,5.39-23.72,7.24-47.33,16.84-72.39,16.39a96,96,0,0,1-60.61-23.49c-14.84-12.95-25.73-30.49-42.61-40.66-16.12-9.71-35.52-11.38-53.51-16.62a90.75,90.75,0,0,1-10.42-3.72,31.25,31.25,0,0,0,4.07-2.89,29.15,29.15,0,0,0,5.57-6.31c6.59-10,7.84-23.5,10.74-35.56,8.6-35.67,37.65-65.49,73.67-74.12S312.2,27.54,336,56.72l-.23.13c20.91,3,41.9,7.9,60.66,17.91,44.7,23.86,31.73,76.5,28.6,81.55-4.52,7.32-2.88,17.17,1.39,24.9s10.81,14,16.55,20.74C443.62,202.7,444.25,203.47,444.87,204.25Z"/></g><path class="cls-6" d="M90.85,285.56c-.93,1.2,0,2.89.93,4.12a42.68,42.68,0,0,1,7.72,19.76,2.21,2.21,0,0,1-1.65,2.44c-1.31.28-2-.92-2.56-2l-9.45-19.1c-1.17-2.37-2.54-4.95-5.87-4.84a6,6,0,0,0-2.35.59c-2.47,1.18-4,3.45-5.43,5.66a19.15,19.15,0,0,1,13.86,16.66,2.69,2.69,0,0,1-1.52,2.71,2,2,0,0,1-2.36-.69c-3.33-3.2-4.25-8.33-7.62-11.49-2.61-2.45-6.36-3.37-9.94-3.24a40.72,40.72,0,0,0-10.46,2.24c-1.79.55-3.67,1.16-4.15,3.73a6.18,6.18,0,0,0,1.09,4.7c1.64,2.31,4.28,3.59,6.67,5.07A38.43,38.43,0,0,1,68,321.12c-1.9,1.55-4.62-.2-6.54-1.73a40.26,40.26,0,0,0-9.89-5.75,1.85,1.85,0,0,0-1.58-.13,1.58,1.58,0,0,0-.54.55,5.69,5.69,0,0,0-.16,6c2.54,4.23,7.12,5.14,11.44,5.92l11.7,2.14c1.13.2,2.53.67,2.47,1.93a1.87,1.87,0,0,1-1.37,1.63c-7.4,2.38-14.54-2.82-22-4.35a2.66,2.66,0,0,0-1.87.1c-1.08.62-1,2.38-1,3.28a11.21,11.21,0,0,0,3,8c3.49,3.62,6.92,2.35,10.2,1.31,7-2.23,14.48-3.6,21.65-1.55a4.55,4.55,0,0,1,3.4,4.8c-.43,3.61-5,3.9-8.44,3.51a175.25,175.25,0,0,0-19.3-1.19,6.77,6.77,0,0,0-2.94.42,5.2,5.2,0,0,0-2.55,3.69c-1.14,5,1.88,10.3,6.3,12.84s9.92,2.69,14.88,1.51c5.63-1.34,10.76-4.24,15.9-6.83a5.69,5.69,0,0,1,3.73-.55c4,.87,3.48,5.26,1.2,7.23-1.75,1.52-4.15,2-6.43,2.37l-19.34,3.38c-2,.34-4.18.8-4.67,3.43a5,5,0,0,0,.34,2.84c2.7,6.43,10.88,9.59,17.25,7,8.56-3.42,12.15-14.81,21-17.46a1.84,1.84,0,0,1,2.2.45,2.68,2.68,0,0,1,.27,2.73c-1.94,4.53-6.07,7.53-10,10.44-4.09,3-8.3,6.42-9.67,11.48a9.14,9.14,0,0,0,1.57,8.32c3.48,4.14,9.16,2.66,12.41-.63,2.56-2.59,3.95-6.09,5.27-9.48l3.81-9.75c.79-2,1.67-4.17,3.64-5.27a3.59,3.59,0,0,1,3.6-.06c1.84,1.11,1.62,3.45.58,5a16.42,16.42,0,0,1-3.31,3.13c-4.44,3.71-7.61,9.27-6.35,15.41a10.61,10.61,0,0,0,3.22,5.66c1.45,1.34,3.51,2.46,5.81,0a7.23,7.23,0,0,0,1.58-2.79l6-18.52c.6-1.88,1.77-4.15,3.73-4,1.41,1.93,1.11,4.61.39,6.88-.9,2.82-2.39,5.57-1.65,8.65a4.25,4.25,0,0,0,2.9,3.23c2.47.68,4.37-1.36,5.72-3.27,3.09-4.34,5.63-9.74,4.16-14.86-2.15-7.48-12-11.29-12.85-19v-.09a5.7,5.7,0,0,1,8.17-5.58c2.95,1.39,6.65,3.57,8,6.18.48.91,1,2,2,2.24a3,3,0,0,0,1.52-.18c10.69-3.36,17.66-15.8,14.71-26.67a3.83,3.83,0,0,0-1.45-2.2c-1.5-1-2.71-.2-3.77.59-2,1.46-3.88,3-5.77,4.52-2.49,2.05-6.15-.75-4.68-3.62l0-.06c1.15-2.17,3.28-3.62,4.93-5.43,4.49-4.92,5.38-12.92,1.32-18.49a7.94,7.94,0,0,0-5.5-3.17,2.61,2.61,0,0,0-1.52.2,3,3,0,0,0-1.16,2.3c-.4,2.89-.28,5.89-1.32,8.61s-3.81,5.13-6.65,4.47A42.25,42.25,0,0,0,138.93,308a22.83,22.83,0,0,0-1.75-10.45c-1.76-3.72-5.24-6.8-9.47-6.94a3.9,3.9,0,0,0-3.32,1.55c-1.13,1.61-.31,3,.35,4.36a23.21,23.21,0,0,1,1,18.21c-.33.88-.77,1.81-2.07,1.83a2.7,2.7,0,0,1-2.32-1.34c-2.78-4.55-1.22-10-.37-15.08.78-4.69.51-10.37-3.43-13a10.63,10.63,0,0,0-6.94-1.37c-1.15.1-2.5.48-2.83,1.58a3.29,3.29,0,0,0,.56,2.38,47.3,47.3,0,0,1,5.06,26.15,2.78,2.78,0,0,1-1.42,2.22c-2.1,1.09-3.8-1.6-4.37-3.76a84.78,84.78,0,0,1-2.36-12.74c-.6-5.68-.72-11.73-5.64-15.87a7.06,7.06,0,0,0-7.9-.79A2.49,2.49,0,0,0,90.85,285.56Z"/><path class="cls-7" d="M166.4,392.39a52.5,52.5,0,0,1-11.25-18.49,2.73,2.73,0,0,0-3.94-2.22c-4.21.86-8.62,1.28-12.76.15-4.86-1.33-9-4.7-12.06-8.68s-5.31-8.55-7.49-13.09c4.24.5,8.53,1,12.76.44s8.46-2.34,11.16-5.64c-1.88-1.73-4.54-2.24-7-2.69l-17.48-3.12q1.58-9.23,4-18.3a5.57,5.57,0,0,1,1.13-2.45A5.25,5.25,0,0,1,126,317a65.73,65.73,0,0,1,16.43-2.42l-8.54-10.32a5.47,5.47,0,0,1-1.37-2.4,5,5,0,0,1,.27-2.29,22.25,22.25,0,0,1,8.2-11.42,44.08,44.08,0,0,1,8.52-4.41,2,2,0,0,1,2.93.63l8.08,9.12a19.7,19.7,0,0,0-1.37-11,8.86,8.86,0,0,1-1-2.87c-.15-2,1.39-3.81,3-5,5.27-3.82,12.18-4.3,18.68-4.64,6.91-.36,13.87-.73,20.72.27,1.33.2,2.89.66,3.24,1.95a3.61,3.61,0,0,1-.4,2.28c-2.13,5.13-4.8,10.79-10,12.68a34.63,34.63,0,0,1-6.11,1.12,24.29,24.29,0,0,0-12.33,6l16.56,3.08a3.79,3.79,0,0,1,2,.78,3.83,3.83,0,0,1,.85,1.65l8.06,25.13a63,63,0,0,0-26.7,9.07c1,1.87,3.44,2.36,5.56,2.55a59.69,59.69,0,0,0,22.35-2.35,123.71,123.71,0,0,1-9.13,27.14c-2,4.22-4.45,8.56-8.57,10.76-4.6,2.45-10.16,1.67-15.36,2a2.37,2.37,0,0,0-1.61.53,2.45,2.45,0,0,0-.27,2.25,67.7,67.7,0,0,0,4.15,12.86,2.57,2.57,0,0,1,.3,1.78,2.21,2.21,0,0,1-1,1.06,11.4,11.4,0,0,1-4.71,1.78"/><path class="cls-8" d="M181.09,279.91c-11.27,7.34-17.55,18.29-21,30.73-4.68-2.33-9.15-5.8-13.56-8.6-1.9-1.21-4.18,1.5-2.27,2.72,4.74,3,9.71,7.13,14.9,9.58A110.17,110.17,0,0,0,157,328.25l-19.66-1.83c-2.25-.21-2.82,3.29-.54,3.5l19.92,1.85c-.1,1.42-.47,17.86-.34,23a16,16,0,0,0-8.42-3.86c-2.25-.32-2.81,3.18-.55,3.5,3.38.48,8.83,5.27,9.12,5.37.2,6,.44,11.73.52,17,0,2.28,3.56,1.9,3.52-.37-.09-6.42-.51-13.1-.81-19.82,2.47-3,8.82-3.17,12.41-3.7a110.74,110.74,0,0,1,12-1.08c2.28-.08,1.91-3.61-.37-3.52a109.31,109.31,0,0,0-16.53,1.84c-2.57.49-5.42.88-7.74,2.14-.16-4.49-.24-9-.1-13.4l7.41-1.42c2.22-.42,1.88-3.95-.37-3.52l-6.87,1.32c.18-3,.48-6,.93-8.84.55-3.51,1.28-7.14,2.21-10.77,4.84,1.11,10.82.1,15.52.08,2.27,0,1.89-3.53-.37-3.52-4.54,0-9.59.6-14.1-.36,3.47-11.54,9.32-22.61,19.26-29.08C185.06,281.55,183,278.67,181.09,279.91Z"/><path class="cls-8" d="M47.6,404.34a10.47,10.47,0,0,0,4.13-1.59,156.6,156.6,0,0,1,37.7-14.94l1.61-.4q2.8-.69,5.66-1.26c2.36-.48,4.74-.9,7-1.57a14,14,0,0,1-.3-7.26c.15-.69.48-1.49,1.17-1.64a1.71,1.71,0,0,1,1.14.24,5.71,5.71,0,0,1,3,5.45c-.06.71-.2,1.55.35,2a1.78,1.78,0,0,0,.78.31l18.33,3.88c.24-2.68.67-5.73,2.92-7.23,1-.64,2.43-.8,3.15.11,1.37,1.74-1.54,4.85.15,6.28a3,3,0,0,0,1.49.52,91.54,91.54,0,0,1,22.28,6.48c3,1.3,6,2.78,9.25,3s6.89-1.15,8.19-4.14a6.58,6.58,0,0,0,.51-2.28,9.22,9.22,0,0,0-.11-2.22c0-.25-.08-.51-.13-.76-1-4.64-3.82-8.71-7.32-11.92a56.81,56.81,0,0,0-9.39-6.71,3.12,3.12,0,0,0-3.92.57c-.59.66-1.29,1.39-2,2a1.28,1.28,0,0,1-2.1-1.26c.39-1.55,1.18-3.19.54-4.61a4.58,4.58,0,0,0-1.66-1.7,23.59,23.59,0,0,0-7.42-3.4,86.55,86.55,0,0,0-21.43-2.8c-3,0-6.64.63-7.54,3.46-.52,1.66-.24,4.11-1.94,4.49,0-2.1-1.86-3.85-3.89-4.41a13.63,13.63,0,0,0-6.28.21,116.43,116.43,0,0,0-18.3,5.31,3.77,3.77,0,0,0-1.79,1.13,3.62,3.62,0,0,0-.54,1.65c-.39,2.37-.77,4.75-1.16,7.12,0,.14,0,.28-.06.41l-.17-.3c-1.4-2.47-2.82-4.94-4.22-7.41-.34-.61-.75-1.27-1.43-1.43a2.48,2.48,0,0,0-1.78.49A67.55,67.55,0,0,0,44.59,399a4.92,4.92,0,0,0-.57,3.24A3.41,3.41,0,0,0,47.6,404.34Z"/><path class="cls-6" d="M60,388.54a95.72,95.72,0,0,1,20.16-12.2.85.85,0,0,1,1.35-.58,93.79,93.79,0,0,1,18.21-5.69,15.28,15.28,0,0,0-2.75-5.42c-.66-.83.54-2,1.21-1.14a17.45,17.45,0,0,1,3.19,6.24,90.23,90.23,0,0,1,23.35-1.22q4.05.32,8.06,1a4.45,4.45,0,0,1,1.46-3.22c.79-.72,1.93.48,1.14,1.2a2.8,2.8,0,0,0-.95,2.15.53.53,0,0,1,0,.17c1,.19,2,.39,3,.61a1.29,1.29,0,0,1-.07-.31,26.31,26.31,0,0,1,.68-6.85c.25-1,1.84-.57,1.6.47a24.8,24.8,0,0,0-.62,6.43.69.69,0,0,1-.23.58,92.46,92.46,0,0,1,16.91,5.71c1.77.8,3.52,1.67,5.26,2.56a6.43,6.43,0,0,1,2.12-5.22c.8-.71,1.94.5,1.14,1.21a4.73,4.73,0,0,0-1.56,4.36.93.93,0,0,1-.06.51c3.37,1.79,6.68,3.71,9.89,5.72,4.89,3.07,9.27,6.69,11.48,12.17.39,1-1.07,1.77-1.47.78-2.38-5.91-7.38-9.48-12.69-12.63a151.54,151.54,0,0,0-15-8,90.8,90.8,0,0,0-31.48-7.8l-.63,0a10.53,10.53,0,0,0-2.18,6.25.83.83,0,0,1-1.66,0,12.13,12.13,0,0,1,1.88-6.3A90.45,90.45,0,0,0,82,377.32a74.32,74.32,0,0,0,2,7.38c.33,1-1.29,1.39-1.62.38-.76-2.33-1.39-4.69-1.92-7.08a92.81,92.81,0,0,0-19.32,11.75C60.28,390.41,59.14,389.21,60,388.54Z"/><path class="cls-6" d="M89.43,387.81l1.61-.4a28,28,0,0,0-2.87-6.15c-.56-.9-2-.13-1.47.78A26.27,26.27,0,0,1,89.43,387.81Z"/><path class="cls-6" d="M146.63,386.82a84.62,84.62,0,0,0,2.82-10.14c.23-1.05,1.82-.58,1.6.46a87.27,87.27,0,0,1-2.83,10.15C147.88,388.3,146.28,387.84,146.63,386.82Z"/><path class="cls-6" d="M153.91,383.43a.83.83,0,0,1,1.42.86,10.83,10.83,0,0,0-1.5,5.85c0,1.07-1.64,1-1.66,0A12.43,12.43,0,0,1,153.91,383.43Z"/><path class="cls-6" d="M410.76,216.08c1.57.5,1.75,2.6,1.72,4.24a46.12,46.12,0,0,0,5.32,22.32,2.38,2.38,0,0,0,3,1.15c1.34-.56,1.25-2.09,1.07-3.33l-3.39-22.8c-.42-2.82-.78-6,2.24-7.92a6.52,6.52,0,0,1,2.45-.93c2.92-.47,5.67.62,8.31,1.69a20.72,20.72,0,0,0-2,23.35,2.92,2.92,0,0,0,3,1.47c1.17-.24,1.49-1.18,1.67-2.07,1-4.9-1.35-10-.31-14.91.8-3.78,3.58-6.91,6.83-9a43.8,43.8,0,0,1,10.68-4.46c1.93-.61,4-1.24,6,.75a6.73,6.73,0,0,1,1.93,4.85c0,3.06-1.59,5.83-2.81,8.62A41.38,41.38,0,0,0,453,233.59c2.65.21,4-3,4.75-5.57A43.44,43.44,0,0,1,463,216.81a2,2,0,0,1,1.32-1.09,1.67,1.67,0,0,1,.82.16,6.14,6.14,0,0,1,3.84,5.23c.36,5.33-3.16,8.95-6.51,12.32q-4.54,4.55-9.08,9.11c-.88.88-1.83,2.15-1,3.24a2.06,2.06,0,0,0,2.23.6c8-2.45,11.18-11.47,16.85-17.42a2.87,2.87,0,0,1,1.72-1.06c1.33-.12,2.35,1.51,2.91,2.3a12.11,12.11,0,0,1,2.27,8.94c-.87,5.37-4.7,6.36-8.26,7.45-7.58,2.33-15.08,5.73-20.18,12a4.93,4.93,0,0,0-.07,6.37c2.61,2.94,6.89.35,9.66-2.09a193.36,193.36,0,0,1,16.41-13,7.45,7.45,0,0,1,2.88-1.44,5.63,5.63,0,0,1,4.54,1.71c4.08,3.72,4.68,10.3,2.32,15.3s-7.15,8.5-12.3,10.51c-5.82,2.27-12.16,2.86-18.33,3.73a6.11,6.11,0,0,0-3.65,1.82c-3,3.24.15,6.81,3.38,7.16,2.49.26,4.91-.81,7.19-1.87l19.25-8.91c2-.92,4.22-1.86,6.28.16a5.48,5.48,0,0,1,1.44,2.74c1.56,7.38-3.75,15.23-11,16.89-9.71,2.24-19.92-5.66-29.4-2.57-.78.25-1.58.61-1.67,1.75a2.83,2.83,0,0,0,1.43,2.59c4.52,2.84,10,2.95,15.3,3.13,5.51.18,11.34.58,15.68,4.23a9.91,9.91,0,0,1,3.73,8.37c-.54,5.82-6.5,8-11.41,7.09-3.87-.73-7.26-3-10.53-5.17l-9.4-6.32c-1.95-1.31-4-2.68-6.48-2.44a3.89,3.89,0,0,0-3.24,2.17c-.94,2.11.7,4.06,2.58,4.8a17.62,17.62,0,0,0,4.87.75c6.23.56,12.47,3.54,15.14,9.77a11.49,11.49,0,0,1,.62,7c-.46,2.08-1.59,4.35-5.14,3.6a7.92,7.92,0,0,1-3.13-1.51l-16.71-12.77c-1.7-1.3-4.14-2.6-5.78-1.23-.06,2.58,1.86,4.77,3.9,6.34,2.54,2,5.55,3.48,6.8,6.67a4.62,4.62,0,0,1-.59,4.66c-1.78,2.12-4.71,1.49-7.1.62-5.42-2-11-5.18-12.85-10.64-2.7-8,3.66-17.39-.31-24.82a.59.59,0,0,1,0-.08,6.17,6.17,0,0,0-10.71.07c-1.76,3.06-3.71,7.27-3.3,10.43.14,1.11.36,2.39-.39,3.22a3.27,3.27,0,0,1-1.47.78c-11.56,3.61-25.42-3.15-29.5-14.63a4.17,4.17,0,0,1-.07-2.85c.69-1.84,2.28-1.85,3.71-1.8q4,.13,7.91.46c3.48.29,5-4.45,1.93-6.1l-.07,0c-2.36-1.22-5.14-1.2-7.73-1.79-7-1.6-12.75-8.16-12.57-15.61a8.52,8.52,0,0,1,2.94-6.2,2.68,2.68,0,0,1,1.47-.76,3.15,3.15,0,0,1,2.44,1.33c2.14,2.31,3.89,5.06,6.49,6.83s6.54,2.21,8.66-.12a46.1,46.1,0,0,1-12.07-11.27A24.66,24.66,0,0,1,377,255.28c-.74-4.38.46-9.27,4.13-12a4.21,4.21,0,0,1,3.91-.67c2,.73,2.13,2.49,2.37,4.09a25.16,25.16,0,0,0,10.36,16.78c.84.58,1.8,1.14,3,.35a2.92,2.92,0,0,0,1.23-2.62c-.33-5.75-5.08-9.64-9-13.63-3.59-3.68-6.85-8.89-5-13.69a11.53,11.53,0,0,1,5.32-5.5c1.08-.61,2.52-1.1,3.49-.33a3.58,3.58,0,0,1,1,2.45,51.08,51.08,0,0,0,11.62,26.35A3,3,0,0,0,412,258c2.53-.33,2.38-3.77,1.56-6a90.94,90.94,0,0,0-5.77-12.77c-3-5.42-6.58-10.87-4.76-17.59A7.64,7.64,0,0,1,409.6,216,2.83,2.83,0,0,1,410.76,216.08Z"/><path class="cls-7" d="M409.49,357.58a56.68,56.68,0,0,0-1.41-23.36,3,3,0,0,1,2.14-4.41c4.27-1.82,8.45-4.18,11.43-7.74,3.5-4.17,5.07-9.7,5.37-15.14s-.56-10.86-1.42-16.24c-3.45,3.05-7,6.15-11.07,8.25s-8.95,3.14-13.39,1.86c.61-2.68,2.65-4.78,4.6-6.72l13.61-13.55q-7.1-7.23-14.84-13.78a5.94,5.94,0,0,0-2.51-1.49,5.76,5.76,0,0,0-3.05.45,70.79,70.79,0,0,0-16.09,8q.61-7.21,1.22-14.43a5.91,5.91,0,0,0-.25-3,5.25,5.25,0,0,0-1.66-1.85,24,24,0,0,0-14.32-5.1,47.81,47.81,0,0,0-10.29,1.33,3,3,0,0,0-1.67.73,2.92,2.92,0,0,0-.54,1.64l-1.56,13.09a21.32,21.32,0,0,1-5.59-10.66,9.93,9.93,0,0,0-.9-3.15c-1.12-1.9-3.59-2.53-5.8-2.57-7-.15-13.46,3.68-19.45,7.39-6.36,3.93-12.78,7.9-18.24,13-1.06,1-2.17,2.37-1.69,3.73a3.91,3.91,0,0,0,1.77,1.78c5.06,3.24,10.92,6.63,16.73,5.08a37.22,37.22,0,0,0,6.11-2.77,26.3,26.3,0,0,1,14.65-2.27l-12.8,12.94a3.08,3.08,0,0,0-1,3.92q4.17,13.63,8.33,27.28a68.29,68.29,0,0,1,29.32-8.4c.24,2.29-1.61,4.23-3.38,5.7a64.39,64.39,0,0,1-21.3,11.69,133.59,133.59,0,0,0,24.85,18.49c4.37,2.52,9.23,4.86,14.24,4.27,5.6-.66,10.06-4.77,14.89-7.68a2.54,2.54,0,0,1,1.75-.53c.84.16,1.3,1.05,1.63,1.84a73.65,73.65,0,0,1,4.24,14A2.71,2.71,0,0,0,403,361a2.4,2.4,0,0,0,1.52.34,12.09,12.09,0,0,0,5.27-1.32"/><path class="cls-8" d="M327.1,266.7c14.54-.43,26.87,5.43,37.57,14.37,2.73-4.95,4.56-10.79,6.75-16,.95-2.25,4.65-1.24,3.69,1-2.35,5.6-4.23,12.32-7.33,17.69a118.17,118.17,0,0,1,10.48,11l16.34-13.74c1.88-1.58,4.54,1.18,2.65,2.77l-16.56,13.92c1,1.21,11.42,15.58,14.49,20.25a17.27,17.27,0,0,1,5.1-8.62c1.8-1.68,4.46,1.09,2.64,2.77-2.7,2.5-4.59,10.12-4.78,10.4,3.51,5.43,6.84,10.69,10,15.44,1.38,2-2,3.88-3.35,1.84-3.87-5.77-7.63-12-11.5-18.12-4.05-1.16-9.79,2.62-13.31,4.37a118,118,0,0,0-11.37,6.47c-2.08,1.33-3.91-2-1.84-3.36a118.24,118.24,0,0,1,15.82-8.55c2.59-1.15,5.36-2.56,8.2-2.88-2.63-4.08-5.33-8.12-8.18-12l-7.45,3.31c-2.24,1-4.11-2.35-1.85-3.36l6.92-3.06c-2-2.55-4.09-5-6.27-7.28-2.65-2.78-5.54-5.56-8.6-8.21-3.62,4-9.56,6.76-13.74,9.64-2,1.39-3.86-2-1.85-3.36,4-2.78,8.89-5.38,12.31-9-10.2-8.11-22.22-14.34-35.05-14C324.58,270.6,324.64,266.77,327.1,266.7Z"/><path class="cls-8" d="M507.8,254.09A11.17,11.17,0,0,1,504,257a169.31,169.31,0,0,0-35.21,26.16l-1.27,1.24q-2.24,2.21-4.39,4.49c-1.78,1.9-3.53,3.84-5.46,5.59a15.09,15.09,0,0,0-6.5-4.41,2.07,2.07,0,0,0-2.18.15,1.87,1.87,0,0,0-.43,1.18,6.19,6.19,0,0,0,3.3,5.88c.68.35,1.54.7,1.63,1.45a2,2,0,0,1-.16.89q-3.45,9.54-6.87,19.07c-2.6-1.31-5.66-2.65-8.31-1.44-1.13.53-2.12,1.78-1.7,3,.82,2.25,5.34,1.35,5.69,3.71a3.16,3.16,0,0,1-.36,1.67A99.11,99.11,0,0,0,435,349.75c-.5,3.49-.86,7.1-2.5,10.22s-5,5.67-8.47,5.16a7.07,7.07,0,0,1-2.39-.82,10.54,10.54,0,0,1-2-1.37,8.11,8.11,0,0,1-.62-.55c-3.72-3.53-5.84-8.48-6.8-13.51a62.52,62.52,0,0,1-.82-12.46,3.37,3.37,0,0,1,2.76-3.28c.94-.17,2-.39,3-.67a1.38,1.38,0,0,0,0-2.65c-1.66-.52-3.61-.73-4.55-2.13a4.94,4.94,0,0,1-.62-2.48,25.52,25.52,0,0,1,1.1-8.77,93.63,93.63,0,0,1,9.63-21.29c1.67-2.74,4.36-5.75,7.47-5,1.82.46,3.92,2.12,5.24.77-1.94-1.2-2.48-3.91-1.85-6.09a14.74,14.74,0,0,1,3.78-5.65,125.13,125.13,0,0,1,15.3-13.8,3.07,3.07,0,0,1,3.88-.57l7.2,3,.42.17-.18-.33-4.41-8.09a2.79,2.79,0,0,1-.5-2.13,2.66,2.66,0,0,1,1.47-1.36,72.9,72.9,0,0,1,44-7.8,5.28,5.28,0,0,1,3.31,1.32A3.68,3.68,0,0,1,507.8,254.09Z"/><path class="cls-6" d="M486.23,256.47a103.09,103.09,0,0,0-22.69,11.59.92.92,0,0,0-1.31.9,100.86,100.86,0,0,0-15.59,13.51,16.36,16.36,0,0,1-3.42-5.61c-.39-1.08-2.13-.64-1.74.45a18.69,18.69,0,0,0,3.93,6.49A97.36,97.36,0,0,0,431,304.57c-1.34,2.61-2.56,5.26-3.68,8a4.84,4.84,0,0,0-3.79-.49.9.9,0,0,0,.46,1.74,3,3,0,0,1,2.51.35,1.27,1.27,0,0,0,.18.06c-.4,1-.8,2.09-1.17,3.14a1.09,1.09,0,0,0-.24-.24,28.63,28.63,0,0,0-6.69-3.27c-1.1-.37-1.57,1.36-.48,1.73a26.7,26.7,0,0,1,6.27,3.09.75.75,0,0,0,.66.12,100.16,100.16,0,0,0-4.38,18.81c-.27,2.08-.47,4.18-.64,6.29a6.92,6.92,0,0,0-6-1c-1.11.33-.65,2.07.46,1.74a5.09,5.09,0,0,1,4.9,1.05.91.91,0,0,0,.5.23c-.28,4.12-.4,8.25-.38,12.35,0,6.25.88,12.33,4.65,17.48.68.92,2.24,0,1.56-.9-4.08-5.56-4.51-12.18-4.38-18.85a163,163,0,0,1,1.13-18.35,98.36,98.36,0,0,1,10.77-33.38l.33-.6a11.41,11.41,0,0,1,7,1.56.9.9,0,0,0,.91-1.55,13.06,13.06,0,0,0-6.86-1.86,97.48,97.48,0,0,1,28.82-31.43,82.55,82.55,0,0,1,5.66,6c.74.88,2-.39,1.27-1.27-1.72-2-3.52-3.95-5.42-5.79a100.29,100.29,0,0,1,21.8-11.08C487.77,257.82,487.32,256.08,486.23,256.47Z"/><path class="cls-6" d="M468.78,283.14l-1.27,1.24a30.06,30.06,0,0,1-4-6.13c-.51-1,1-1.95,1.55-.91A29.67,29.67,0,0,0,468.78,283.14Z"/><path class="cls-6" d="M435.31,335.16A95,95,0,0,1,424.37,332c-1.09-.39-1.56,1.34-.48,1.73a94.39,94.39,0,0,0,10.94,3.18C436,337.15,436.44,335.42,435.31,335.16Z"/><path class="cls-6" d="M428.05,339.92a.9.9,0,0,0,0,1.79,11.82,11.82,0,0,1,6.23,2c1,.63,1.87-.92.9-1.55A13.41,13.41,0,0,0,428.05,339.92Z"/><g class="cls-1"><polygon class="cls-6" points="465 369.71 464.27 375.19 327.6 398.44 328.33 392.97 465 369.71"/><polygon class="cls-8" points="367.16 278.37 465 369.71 328.33 392.97 244.31 315.04 367.16 278.37"/><polygon class="cls-6" points="194.02 419.39 193.29 424.87 100.88 338.6 101.61 333.12 194.02 419.39"/><polygon class="cls-6" points="328.43 392.97 327.7 398.44 193.45 424.86 194.18 419.38 328.43 392.97"/><polygon class="cls-8" points="101.85 333.16 244.54 315.08 328.5 393.02 194.26 419.43 101.85 333.16"/></g><g class="cls-1"><polygon class="cls-9" points="245.38 310.98 329.49 389.07 204.78 415.2 122.47 334.87 245.38 310.98"/></g><g class="cls-1"><path class="cls-10" d="M245.38,311l84.11,78.09A432.07,432.07,0,0,0,204.78,415.2l-82.31-80.33Z"/></g><g class="cls-1"><polygon class="cls-9" points="452.78 367.82 450.99 366.06 451.08 365.35 450.39 365.48 370.47 287.48 247.55 311.38 328.17 389.24 452.78 367.82"/><path class="cls-11" d="M452.78,367.82,451,366.06l.09-.71-.69.13-79.92-78L247.55,311.37l80.62,77.87C371.38,373.56,413,366.23,452.78,367.82Z"/><path class="cls-12" d="M368.77,285l82.31,80.33c-43.14-7.92-84.36-1.78-122.91,23.89l-82.31-80.33C275.25,278.53,317.32,272.71,368.77,285Z"/></g><g class="cls-1"><path class="cls-13" d="M247.18,308.74l81,80.5c-43.14-7.92-83-1.95-121.59,23.73l-82.31-80.34C153.66,302.25,195.73,296.43,247.18,308.74Z"/></g><path class="cls-14" d="M153.54,328.2l29.56,26.1s30.53-21.23,75.76-10.1l-29-30.05S187.23,301.67,153.54,328.2Z"/><path class="cls-15" d="M314,342l24.52,25.71s35.75-24,81.5-15.28L389.52,324S346.26,313.78,314,342Z"/><path class="cls-16" d="M333.49,67S320.12,69.27,296,94.8L274.27,72.05S280,66.89,295,65c8.22-1.05,19.24-1.12,33.64,1.19C330.19,66.42,331.82,66.7,333.49,67Z"/><path class="cls-17" d="M328.6,66.17c-12.34,2.63-17.68,7.7-17.68,7.7A37.86,37.86,0,0,0,295,65C303.18,63.93,314.2,63.86,328.6,66.17Z"/><path class="cls-18" d="M302.49,83.51a.34.34,0,0,1-.31-.19c-2.54-5.33-15.56-14.8-15.69-14.89a.35.35,0,0,1-.08-.49.34.34,0,0,1,.48-.08c.54.4,13.3,9.67,15.92,15.16a.34.34,0,0,1-.17.46A.4.4,0,0,1,302.49,83.51Z"/><path class="cls-18" d="M304.92,79.89a.35.35,0,0,1-.31-.2C302.93,76,291,67.47,290.83,67.39a.35.35,0,0,1-.08-.49.34.34,0,0,1,.48-.08c.5.35,12.25,8.74,14,12.58a.35.35,0,0,1-.17.46A.4.4,0,0,1,304.92,79.89Z"/><path class="cls-18" d="M308,77.09a.36.36,0,0,1-.32-.21c-1.41-3.33-12.74-10.19-12.86-10.26a.35.35,0,0,1-.12-.48.37.37,0,0,1,.48-.12c.47.29,11.64,7,13.14,10.58a.34.34,0,0,1-.18.46A.32.32,0,0,1,308,77.09Z"/><path class="cls-19" d="M244.55,304.46S226,287.73,161.5,282.05l8-57.38s14,2.34,33.88,21.8c10.91,10.67,23.61,26.51,36.76,50C241.64,299,243.08,301.69,244.55,304.46Z"/><path class="cls-20" d="M240.18,296.43c-17.92-14.82-31.36-16.74-31.36-16.74a70,70,0,0,0-5.4-33.22C214.33,257.14,227,273,240.18,296.43Z"/><path class="cls-18" d="M185.26,278.55a.64.64,0,0,1-.07-.68c4.79-9.76,3.57-39.4,3.56-39.7a.64.64,0,1,1,1.28-.06c.05,1.24,1.24,30.27-3.69,40.32a.65.65,0,0,1-.86.3A.79.79,0,0,1,185.26,278.55Z"/><path class="cls-18" d="M193.28,277.92a.64.64,0,0,1-.07-.69c3.38-6.63,2-33.7,2-34a.64.64,0,0,1,.61-.68.65.65,0,0,1,.67.61c.06,1.13,1.39,27.69-2.15,34.62a.65.65,0,0,1-.86.28A.51.51,0,0,1,193.28,277.92Z"/><path class="cls-18" d="M200.8,279.1a.62.62,0,0,1-.06-.7c3.19-5.85.14-30.07.11-30.31a.63.63,0,0,1,.55-.72.65.65,0,0,1,.72.55c.13,1,3.13,24.88-.26,31.09a.64.64,0,0,1-.87.26A.61.61,0,0,1,200.8,279.1Z"/><path class="cls-21" d="M157.3,30.76s29.39,38.09,39.23,43.14c0,0,12.23-12.11,27.5-16.27,0,0-16.65-34.69-27.88-44.78C196.15,12.85,180.39,29.5,157.3,30.76Z"/><path class="cls-18" d="M185.54,26.26a.4.4,0,0,1-.31-.16.38.38,0,0,1,.09-.53L194.53,19a.38.38,0,1,1,.44.62l-9.21,6.55A.35.35,0,0,1,185.54,26.26Z"/><path class="cls-18" d="M188.2,29.53a.39.39,0,0,1-.31-.15.38.38,0,0,1,.09-.53l9.21-6.56a.38.38,0,0,1,.44.62l-9.21,6.55A.34.34,0,0,1,188.2,29.53Z"/><path class="cls-18" d="M178.34,48.48a.38.38,0,0,1-.2-.7c.17-.1,17.07-10.56,24.24-17.54a.38.38,0,0,1,.54,0,.39.39,0,0,1,0,.54c-7.23,7-24.21,17.54-24.38,17.65A.45.45,0,0,1,178.34,48.48Z"/><path class="cls-18" d="M181,52.09a.39.39,0,0,1-.31-.15.38.38,0,0,1,.09-.53c.15-.11,15.48-11.38,24.05-17.92a.38.38,0,0,1,.46.6C196.7,40.64,181.36,51.91,181.2,52A.34.34,0,0,1,181,52.09Z"/><path class="cls-18" d="M184.67,55.17a.39.39,0,0,1-.27-.12.38.38,0,0,1,0-.53c.13-.13,13.35-12.9,23.51-17.36a.38.38,0,0,1,.3.7c-10,4.39-23.15,17.07-23.28,17.2A.4.4,0,0,1,184.67,55.17Z"/><path class="cls-18" d="M187.45,57.82a.37.37,0,0,1-.28-.13.38.38,0,0,1,0-.54c.68-.61,16.91-15,22.73-16.54a.38.38,0,0,1,.46.27.37.37,0,0,1-.26.46c-5.66,1.54-22.26,16.23-22.43,16.38A.39.39,0,0,1,187.45,57.82Z"/><path class="cls-18" d="M190.49,60.28a.39.39,0,0,1-.28-.13.37.37,0,0,1,0-.53c.59-.54,14.62-13.14,21.54-15.78a.38.38,0,1,1,.27.71c-6.79,2.59-21.16,15.5-21.31,15.63A.39.39,0,0,1,190.49,60.28Z"/><path class="cls-18" d="M192.81,62.86a.37.37,0,0,1-.29-.13.37.37,0,0,1,0-.53c.62-.55,15.34-13.39,21.23-14.72a.37.37,0,0,1,.45.29.38.38,0,0,1-.28.45c-5.71,1.29-20.75,14.41-20.9,14.55A.43.43,0,0,1,192.81,62.86Z"/><path class="cls-22" d="M104.75,193.44l-15.49,28c-15.18-1.07-20.1-20.69-35.28-21.75Q61,187,68,174.31C83.69,174.5,89.09,193.25,104.75,193.44Z"/><path class="cls-18" d="M77.86,181.17l-.72-.48L66.46,200l.69.52Z"/><path class="cls-18" d="M69.55,202.55l10.78-19.5-.69-.55L68.88,202C69.11,202.15,69.33,202.35,69.55,202.55Z"/><path class="cls-18" d="M71.85,204.73l10.86-19.64c-.22-.2-.44-.4-.67-.59L71.21,204.11Z"/><path class="cls-18" d="M74.1,207,85,187.21l-.65-.6L73.47,206.36Z"/><path class="cls-18" d="M76.37,209.25l11-19.94-.67-.58-11,19.89Z"/><path class="cls-18" d="M78.69,211.39l11.1-20.07-.69-.55L78,210.8C78.24,211,78.47,211.2,78.69,211.39Z"/><path class="cls-18" d="M80.42,212.82l.7.52,11.17-20.22-.72-.48Z"/><path class="cls-18" d="M71.21,177.9c-.31-.09-.62-.17-.94-.24l-2.49,4.49c.32.08.63.16.94.26Z"/><path class="cls-18" d="M69.86,182.79l.88.35,2.51-4.53-.89-.34Z"/><path class="cls-23" d="M404,297.46l-30.5-18.11c1.69-16.77,23.58-21.55,25.28-38.31l27.65,16.42C425.67,274.79,404.73,280.13,404,297.46Z"/><path class="cls-18" d="M418.48,268.1l.56-.78-21-12.48c-.2.26-.4.51-.61.76Z"/><path class="cls-18" d="M395.1,258.18l21.22,12.6q.33-.37.63-.75l-21.17-12.57Z"/><path class="cls-18" d="M392.61,260.65,414,273.34l.68-.72L393.32,260Z"/><path class="cls-18" d="M390,263.07l21.54,12.78.68-.7-21.49-12.76Z"/><path class="cls-18" d="M387.46,265.5l21.68,12.87.68-.71-21.65-12.85Z"/><path class="cls-18" d="M385,268l21.85,13c.2-.25.41-.49.63-.74l-21.8-12.94C385.45,267.52,385.22,267.75,385,268Z"/><path class="cls-18" d="M383.36,269.86l-.6.75,22,13.07c.18-.27.37-.53.56-.79Z"/><path class="cls-18" d="M422.33,260.86c.11-.34.21-.69.3-1l-4.89-2.9c-.1.35-.2.69-.31,1Z"/><path class="cls-18" d="M417,259.19c-.13.33-.27.65-.42,1l4.93,2.93c.14-.32.28-.65.41-1Z"/><path class="cls-24" d="M189.09,88.16c-2.67-6.2-.29-9.43-.29-9.43-1.92-1.31-5.51.25-5.51.25l-11.68,5a5.74,5.74,0,0,0-3,7.55l8.25,19.16,18.51-8Z"/><path class="cls-18" d="M185.44,85.49l-15,5.8a.27.27,0,0,1-.34-.15h0a.28.28,0,0,1,.15-.35l15-5.8a.27.27,0,0,1,.34.16h0A.26.26,0,0,1,185.44,85.49Z"/><path class="cls-18" d="M186.84,89.12l-15,5.8a.26.26,0,0,1-.35-.15h0a.27.27,0,0,1,.15-.34l15-5.8a.26.26,0,0,1,.34.15h0A.25.25,0,0,1,186.84,89.12Z"/><rect class="cls-18" x="177.34" y="88.25" width="9.01" height="0.61" rx="0.25" transform="translate(-19.69 71.38) rotate(-21.09)"/><rect class="cls-18" x="170.7" y="91.63" width="5.63" height="0.53" rx="0.18" transform="translate(-21.44 68.6) rotate(-21.09)"/><rect class="cls-18" x="172.03" y="94.59" width="9.01" height="0.61" rx="0.25" transform="translate(375.38 119.9) rotate(158.91)"/><rect class="cls-18" x="182.05" y="91.3" width="5.63" height="0.53" rx="0.18" transform="translate(390.29 110.46) rotate(158.91)"/><path class="cls-18" d="M188.62,92.89l-15,5.8a.26.26,0,0,1-.34-.15h0a.27.27,0,0,1,.15-.34l15-5.8a.25.25,0,0,1,.34.15h0A.27.27,0,0,1,188.62,92.89Z"/><rect class="cls-18" x="173.8" y="98.35" width="9.01" height="0.61" rx="0.25" transform="translate(380.17 126.54) rotate(158.91)"/><path class="cls-25" d="M119.13,82.08a3.69,3.69,0,0,1-2.07,1.06c-4.45.68-9.52,2.74-12,6.58-2.63,4-3.09,10.27-3,15.09.11,5.18,2.5,10,4.84,14.63a13.1,13.1,0,0,0,3.46,4.84c2.91,2.16,7.1,1.59,10.26,3.38,4.87,2.75,5.8,10.13,10.91,12.42a10.81,10.81,0,0,0,4.72.75A23.68,23.68,0,0,0,151,135.19a10.42,10.42,0,0,0,3.46-4.75c.76-2.63-.15-5.43-.1-8.16,0-1.82.49-3.6.69-5.4.52-4.71-1.08-10-5.16-12.43-3.06-1.82-6.85-1.72-10.4-1.46a15.1,15.1,0,0,1-4.7-.13,4.85,4.85,0,0,1-3.51-2.88c-.48-1.44,0-3,.26-4.49a13.5,13.5,0,0,0-2.11-10A11.19,11.19,0,0,0,122.56,81a3.85,3.85,0,0,0-3.43,1.11Z"/><path class="cls-26" d="M162.71,126.33l-23.78-8.8,2.39,12.11,20.08,4.91C162.26,132.15,163.42,128.3,162.71,126.33Z"/><path class="cls-27" d="M179.73,102.59c.46-1.34-8.39-.31-8.39-.31-2.88.85,3.21,8.52,3.21,8.52L163.5,126.62h0c0,.06,2.08,5.24,1.09,8.36a6.07,6.07,0,0,0,4.9-3.46l9-19.22c1.9-6-4.38-8.15-4.38-8.15C180.56,104,179.73,102.59,179.73,102.59Z"/><polygon class="cls-28" points="163.5 126.62 162.7 126.32 162.71 126.33 163.5 126.62 163.5 126.62"/><path class="cls-29" d="M163.5,126.62l-.79-.29c.71,2-.45,5.82-1.31,8.22-.08.2-.15.39-.21.56a1.45,1.45,0,0,0,1,1.92,1.08,1.08,0,0,0,.64,0,3,3,0,0,0,1.74-2C165.58,131.86,163.52,126.68,163.5,126.62Z"/><path class="cls-30" d="M176.17,166.5,147.55,166,153,148c8.54-.58,17.16-1.21,25.12-1.49A41.83,41.83,0,0,0,176.17,166.5Z"/><path class="cls-31" d="M212.58,159.4c-11,20.91-30.75,35.51-54.82,46.94l-.36.18c.66,4.22-1.9,11.36-4.2,16.68-.51,1.16-1,2.23-1.44,3.17a2.08,2.08,0,0,1-2,1.21,2.11,2.11,0,0,1-1.8-1.13,6.89,6.89,0,0,1-.45-5.41l2.26-6.91a7,7,0,0,0,.37-2.06,6.68,6.68,0,0,0-.16-1.84,1.28,1.28,0,0,0-.07-.34,6.13,6.13,0,0,0-.18-.61,4.6,4.6,0,0,1-.2-.77s0,0,0,0a4.8,4.8,0,0,1,4.92-5.6l.37-.25.2-.14C167.12,194,178.59,183.67,188,166.7l-3.79-.06c-.43-5.54-.72-14.43,1-20.23l0-.07c15.42-.11,27,1.72,28.14,8.77A6.91,6.91,0,0,1,212.58,159.4Z"/><path class="cls-32" d="M153.18,223.13a.64.64,0,0,0,0,.07c-.51,1.16-1,2.23-1.44,3.17a2.08,2.08,0,0,1-2,1.21,2.11,2.11,0,0,1-1.8-1.13,6.89,6.89,0,0,1-.45-5.41l2.26-6.91a7,7,0,0,0,.37-2.06,6.68,6.68,0,0,0-.16-1.84,1.28,1.28,0,0,0-.07-.34,6.25,6.25,0,0,0-.27-1c0-.12-.08-.23-.11-.35s0,0,0,0a4.8,4.8,0,0,1,4.92-5.6l.37-.25.2-.14c-.35,3-1.6,13.65-2.1,17.33A9.56,9.56,0,0,0,153.18,223.13Z"/><path class="cls-29" d="M185.22,146.34s0,0,0,.08c-1.74,5.79-1.46,14.69-1,20.22.05.71.11,1.38.17,2a3.27,3.27,0,0,1-2.79,3.52l-1,.16a3.31,3.31,0,0,1-3.63-2.4,32.29,32.29,0,0,1-.76-3.39,41.83,41.83,0,0,1,1.94-20c.3-.89.59-1.66.85-2.32a3.26,3.26,0,0,1,3.28-2.05h.09A3.29,3.29,0,0,1,185.22,146.34Z"/><path class="cls-33" d="M123.57,101.67s-.49,13.33.15,21.5l6.22-1.89s-1.69-5.62.53-14.63Z"/><path class="cls-34" d="M114.77,108.87c-1.2-1.71-1.7-4.4-.19-5.18a2.93,2.93,0,0,1,1.7-.18c-1-5.84.51-13.43,4.29-15.37,5-2.54,10.43-1.83,16.64,11.13,2.46,5.13,1.16,12.12-3.51,15.06-3.52,2.21-9.59,0-13.43-3.49C118.41,111.05,116.3,111,114.77,108.87Z"/><path class="cls-35" d="M153,148c-.41.1-14,3.52-20.58,12.74a1.75,1.75,0,0,1-3.17-1,52.33,52.33,0,0,1,1.21-11.57,28.19,28.19,0,0,0-.56-3.87,26.15,26.15,0,0,0-6.27-12.1,10,10,0,0,1-1.28-2c-1.7-3.18-3.59-8.59-1.73-9.12l12.09-3.46a11.65,11.65,0,0,1,11.62,2.94,10,10,0,0,1,1,1.26,10.79,10.79,0,0,1,1.09,9.87,13.07,13.07,0,0,0,2.15,12.69A13.69,13.69,0,0,0,153,148Z"/><path class="cls-36" d="M165.39,181.22c-4.58-1.38-9.34-2.54-14.26-3.52-11.95-1.16-18.84-6.54-20.52-16.27a1.72,1.72,0,0,0,1.79-.69C139,151.52,152.56,148.11,153,148h0a11.53,11.53,0,0,0,1.52.68A137.12,137.12,0,0,1,178.2,160c-3.69,3-10.55,9.73-12.94,19.28A2.93,2.93,0,0,0,165.39,181.22Z"/><path class="cls-37" d="M241.78,274.42h-.54a9.28,9.28,0,0,1-8-5.07,5.18,5.18,0,0,0-3.34-2.7l-.48-.13a5.9,5.9,0,0,1-3.77-8.49s0-.25,0-.74c0-.26,0-.58,0-1v-.08c-.1-4.5-1.72-17.2-15.36-34.75a32.39,32.39,0,0,1-7.92-19.91c-9.28-8.29-20.43-14.34-33-18.66a2.9,2.9,0,0,0,1.09-1.23c2-4.38,6.45-13.1,11.14-17.46a2.9,2.9,0,0,0,.63-.83c31.27,21,47.22,53.56,50.92,95.27,0,.27,0,.55.07.83l7.93,9.79,1.88,2.33A1.74,1.74,0,0,1,241.78,274.42Z"/><path class="cls-32" d="M241.78,274.42h-.54a9.28,9.28,0,0,1-8-5.07,5.18,5.18,0,0,0-3.34-2.7l-.48-.13a5.9,5.9,0,0,1-3.77-8.49s0-.25,0-.74c0-.26,0-.58,0-1v-.08c9.36,9.57,15.78,15.49,15.51,13l1.88,2.33A1.74,1.74,0,0,1,241.78,274.42Z"/><path class="cls-29" d="M183.4,163.42a3.1,3.1,0,0,1-.62.84c-4.61,4.35-9,13.08-11,17.46a2.86,2.86,0,0,1-1.07,1.23,3,3,0,0,1-2.8.32l-.86-.35a3.08,3.08,0,0,1-1.82-3.6c2.39-9.55,9.25-16.26,12.94-19.28l.58-.47a3,3,0,0,1,3.59-.13l.07.05A3,3,0,0,1,183.4,163.42Z"/><path class="cls-38" d="M133.69,104.87a.28.28,0,0,1-.2-.12.25.25,0,0,1,.09-.34c.7-.42.68-.61.68-.62,0-.19-.95-.38-1.86-.39a.25.25,0,1,1,0-.49c.64,0,2.15.09,2.33.76.13.48-.45.89-.9,1.16A.23.23,0,0,1,133.69,104.87Z"/><path class="cls-38" d="M131.23,108.43a4,4,0,0,1-3.44-2.1.28.28,0,0,1,.09-.38.29.29,0,0,1,.39.09,3.87,3.87,0,0,0,4.91,1.51.27.27,0,0,1,.37.14.29.29,0,0,1-.14.37A5.44,5.44,0,0,1,131.23,108.43Z"/><path class="cls-38" d="M126.34,102.58c.31.87.9,1.46,1.32,1.31s.53-1,.23-1.85-.9-1.46-1.32-1.31S126,101.71,126.34,102.58Z"/><path class="cls-38" d="M133,100.61c.31.88.9,1.47,1.32,1.32s.53-1,.23-1.85-.9-1.46-1.32-1.32S132.74,99.74,133,100.61Z"/><path class="cls-38" d="M124.19,100.66h0a.28.28,0,0,1-.24-.31,2.31,2.31,0,0,1,2.51-2.1.28.28,0,0,1,.25.3.27.27,0,0,1-.3.26,1.75,1.75,0,0,0-1.9,1.62A.27.27,0,0,1,124.19,100.66Z"/><path class="cls-38" d="M133.75,97.14a.28.28,0,0,1-.22-.12h0a1,1,0,0,0-1.47-.23.28.28,0,1,1-.29-.47,1.59,1.59,0,0,1,2.22.38.28.28,0,0,1-.07.39A.26.26,0,0,1,133.75,97.14Z"/><path class="cls-39" d="M137.25,93.5a13,13,0,0,0-.95-2,7.05,7.05,0,0,0-1.71-2.35,5.86,5.86,0,0,0-4.18-.92,5.77,5.77,0,0,0-6-3.79,7.61,7.61,0,0,0-5.27,3c-1.88,2.46-4.75,7-4.4,11.39.9,11.49,10.84,11.88,10.84,11.88-4.77-3.78-4.91-7.26-4-9.66a7.77,7.77,0,0,1,3.54-4c1.65-.92,4.37-2.67,5.5-4.7a32.79,32.79,0,0,0,3.51,1.75,6.67,6.67,0,0,1,3.28,5.64C137.64,97.7,137.94,95.51,137.25,93.5Z"/><path class="cls-29" d="M123.55,120.28l-.93-2a1,1,0,0,1,.8-1.42l6.85-.73a1,1,0,0,1,1.07.76l.1.38a1.06,1.06,0,0,1-.79,1.29Z"/><path class="cls-40" d="M129.88,144.31a26.15,26.15,0,0,0-6.27-12.1,10,10,0,0,1-1.28-2l3.36-5.07S134.45,134.84,129.88,144.31Z"/><path class="cls-41" d="M108.57,149.86,84.28,161s-6.07.42-13.18,10.37c0,0-.14,2.44,3.69-.72,0,0-.3,2.37,1,1.33l.38-.71a15.7,15.7,0,0,1,4.23-5,.41.41,0,0,1,.25-.08.37.37,0,0,1,.36.43,8.82,8.82,0,0,1-1.86,4.45s-.62,4.31,6-5.89c0,0,19.74-3.92,27.43-7.42a9.23,9.23,0,0,0,2.6-1.8,1.1,1.1,0,0,1-.3-.27C113.48,153.82,110.74,150.56,108.57,149.86Z"/><path class="cls-42" d="M126,126.1a12.3,12.3,0,0,0-2.15-4.13,3,3,0,0,0-5.33,1.58,54.89,54.89,0,0,1-9.44,25.74c1.09.21,6.75,1.45,8.06,4.27a58.12,58.12,0,0,0,9-18.37A16.33,16.33,0,0,0,126,126.1Z"/><path class="cls-29" d="M117.16,153.56c-1.31-2.82-7-4.06-8.06-4.27-.11.17-.23.32-.35.49l-.18.08c2.17.7,4.91,4,6.34,5.83a1.1,1.1,0,0,0,.3.27,1.37,1.37,0,0,0,.8.29,1.43,1.43,0,0,0,1.07-.42,1.13,1.13,0,0,0,.32-.56A2.88,2.88,0,0,0,117.16,153.56Z"/><path class="cls-6" d="M348.55,152.23c-1.14-.47-3.67-.85-8.7,1.07l7,4.33s2.21-.31,2.49-4.12A1.28,1.28,0,0,0,348.55,152.23Z"/><path class="cls-43" d="M303.84,195.19s28.7,24.06,38.12,19.25l1.56-3.52-35-17.11Z"/><path class="cls-6" d="M320.48,284.51c.06-.14.11-.28.16-.43a7.77,7.77,0,0,0-1.85-7.74,4.39,4.39,0,0,1-1.23-3.41l0-.42a5.07,5.07,0,0,0-5.78-5.41l-.6-.17-.8-.28-.22,6.61.65.3,7,11.21A1.48,1.48,0,0,0,320.48,284.51Z"/><path class="cls-44" d="M310.65,273.38c-3.89-3-7.43-5.81-10.66-8.52-4.78-4-8.88-7.74-12.38-11.18-18.55-18.17-20.8-28.27-20.8-28.27-2.36-12.15,25.18-23.47,41.68-29.11a74.7,74.7,0,0,1,8.76,2.69,68.58,68.58,0,0,1,6.41,2.75l4.9,13.8-26.05,4.67-22.15,4,12.09,15.92,11.78,15.53,8.43,11.09Z"/><path class="cls-6" d="M283.54,332.58l.47-.15a8.28,8.28,0,0,0,5.48-6.48,4.71,4.71,0,0,1,2.15-3.22l.39-.23a5.41,5.41,0,0,0,1-8.39s-.09-.21-.23-.63c-.08-.23-.17-.51-.27-.85l-5.82,4c.05.25.11.5.16.75l-5.22,13.11A1.58,1.58,0,0,0,283.54,332.58Z"/><path class="cls-45" d="M299.14,267c.28-.72.56-1.43.85-2.14q1.9-4.73,4.24-9.23a126.84,126.84,0,0,1,25.32-33.43,104.46,104.46,0,0,0,9.52-10.32A72.08,72.08,0,0,0,317.25,199c-2,3.47-3.06,4.22-3.06,4.22a171,171,0,0,0-11.68,17,151.21,151.21,0,0,0-10.06,19.89,137.23,137.23,0,0,0-4.84,13.58,126.56,126.56,0,0,0-5.25,30.16c-.37,7.64,1.84,18.28,2.91,29.52a16.65,16.65,0,0,0,1,4.51l6.91-5.44C290.25,297.77,293.64,281.43,299.14,267Z"/><path class="cls-46" d="M321.75,176.76c-.13-.66.62-2.18,7.76-4.46l4.92-1.21a7.77,7.77,0,0,0,6-7.38,6.3,6.3,0,0,0-2.24-5,8.31,8.31,0,0,0-8.85-1.14l-4.92,2.22-4.66,2.1s4.55,4,1.9,9a7.29,7.29,0,0,0-.63,3.43A5.67,5.67,0,0,0,321.75,176.76Z"/><path class="cls-47" d="M279.08,168.4a37.68,37.68,0,0,1,8.17,2.84l11.89,5.67a11.83,11.83,0,0,0,8,.88l14-3.42a7.29,7.29,0,0,1,.63-3.43c2.65-5-1.9-9-1.9-9l-12.24,5.53a8.5,8.5,0,0,1-5.77.44l-17.29-2.36a7.5,7.5,0,0,0-4.2-4.88l-.78,2.05-4.73-3.17C272.85,165.2,275.13,167.47,279.08,168.4Z"/><path class="cls-48" d="M357.74,170.37c-1.55,3.83-4.9,17.61-8.67,28.92-2.32,7-4.79,13-7.11,15.15l-2.89-2.56a68.61,68.61,0,0,0-15.4-10.14c-2-1-4.13-1.9-6.42-2.75a71.1,71.1,0,0,0-8.76-2.68l-4.65-1.13c4.6-2.08,18.27-8.76,19.42-15.05a82.71,82.71,0,0,0,3.45-14.52c.62-5.44,7.92-8.64,7.92-8.64l13.87.63a9.31,9.31,0,0,1,9.24,12.77Z"/><path class="cls-49" d="M357.74,170.37c-1.55,3.83-4.9,17.61-8.67,28.92,1-10.28,3.53-22.65-2.72-22.69a11.11,11.11,0,0,1,4.36-10.19l6.18-4.62A9.2,9.2,0,0,1,357.74,170.37Z"/><path class="cls-50" d="M277.14,150.65l22.44-29.21a21.92,21.92,0,0,1,37.59,4.83l13.89,32.89a21.93,21.93,0,0,1-21.75,30.4l-56.63-9.94-2.07-20.74Z"/><path class="cls-6" d="M289.83,182.94l-16.55,2.66a.41.41,0,0,1-.47-.34l-3.95-25.88L284.4,155a1.76,1.76,0,0,1,2.21,1.37l4.67,24.54A1.77,1.77,0,0,1,289.83,182.94Z"/><path class="cls-51" d="M289.83,182.94l-16.55,2.66a.41.41,0,0,1-.47-.34l-3.95-25.88L284.4,155a1.76,1.76,0,0,1,2.21,1.37l4.67,24.54A1.77,1.77,0,0,1,289.83,182.94Z"/><polygon class="cls-52" points="270.61 158.88 277.14 150.65 274.99 150.13 268.86 159.38 270.61 158.88"/><polygon class="cls-53" points="277.14 150.65 278.49 156.64 270.61 158.88 277.14 150.65"/><rect class="cls-53" x="273.51" y="162.27" width="11.29" height="7.32" transform="translate(-26.41 55.99) rotate(-10.94)"/><path class="cls-54" d="M338.76,154.33l-5.13,2.53s3.06,3.19,3.14,4.74l2-.91Z"/><path class="cls-55" d="M289.89,178.23a37.7,37.7,0,0,1,8.6.93l24.15,5.69a11.78,11.78,0,0,0,8-.93l12.83-6.48a7.28,7.28,0,0,1-.16-3.48c1.46-5.48-3.88-8.35-3.88-8.35l-10.68,8.14a8.46,8.46,0,0,1-5.52,1.73l-28.67-1.25a13.33,13.33,0,0,0-5.45-5l.8,4.14-4.32-2.12a1.41,1.41,0,0,0-1.91,1.41C283.84,176.93,286.36,178.22,289.89,178.23Z"/><path class="cls-56" d="M344.64,179.62c-.28-.61.12-2.27,6.56-6.1l4.52-2.28a7.8,7.8,0,0,0,4.21-8.56,6.28,6.28,0,0,0-3.31-4.32,8.28,8.28,0,0,0-8.87.89l-2.84,2.15a19.33,19.33,0,0,1-3.09,1.94l-2,1a1,1,0,0,0-.15,1.7c1.83,1.34,4.65,4.1,3.64,7.89a7.28,7.28,0,0,0,.16,3.48A5.74,5.74,0,0,0,344.64,179.62Z"/><path class="cls-57" d="M348.86,141.82a119.8,119.8,0,0,1-1.24,16c-.57,3.42-10.15,4.8-10.46,4.56a1.11,1.11,0,0,1-.39-1.28c1.22-3.38,2.91-9.54,1.63-15Z"/><path class="cls-58" d="M351.43,137.76c-1-5.84-5-12.47-9.22-13-5.51-.72-10.42,1.79-11.91,16.09a11.66,11.66,0,0,0,0,1.87c-.58.29-1.16.7-1.13,1.15s.73.68,1.25.79a.19.19,0,0,0,.13,0c.9,4.36,4,8.28,8.17,9.21s9-3.29,11.46-7.82C352,145.57,352,137.45,351.43,137.76Z"/><path class="cls-38" d="M334.64,145.91a4.05,4.05,0,0,0,1.82-3.61.29.29,0,0,0-.29-.27.28.28,0,0,0-.27.28,3.86,3.86,0,0,1-3.38,3.87.28.28,0,0,0-.24.32.27.27,0,0,0,.31.23A5.33,5.33,0,0,0,334.64,145.91Z"/><path class="cls-38" d="M333.72,140.16c0,.92-.35,1.67-.8,1.68s-.82-.74-.83-1.67.35-1.68.8-1.68S333.71,139.23,333.72,140.16Z"/><path class="cls-38" d="M335.39,137.3h0a.28.28,0,0,0,.12-.38,2.31,2.31,0,0,0-3.07-1.13.27.27,0,0,0-.13.37.28.28,0,0,0,.37.14,1.75,1.75,0,0,1,2.33.88A.28.28,0,0,0,335.39,137.3Z"/><path class="cls-59" d="M355.21,137.57a22.14,22.14,0,0,1-.65,5.06,13.77,13.77,0,0,1-5.35,7.29c-1.28.53-2.7,1.05-3.87.34a5.5,5.5,0,0,1-1.9-3,21.9,21.9,0,0,1-.82-3.26l.3.05c1.6.19,4.5-1,4.73-2.89a3.21,3.21,0,0,0-2.49-3.76,2.89,2.89,0,0,0-2.69,1.36c0-.33.07-.65.12-1a7.7,7.7,0,0,0-.63-4c-.06-.15-.12-.32-.17-.49a6.15,6.15,0,0,1-4.59.29,2.08,2.08,0,0,1-1.4-1.52,1.64,1.64,0,0,1,.52-1.32,12.52,12.52,0,0,1-5.1,1,4.56,4.56,0,0,1-2.51-.67,2,2,0,0,1,0-3.43,6,6,0,0,1-2.12,0,2.38,2.38,0,0,1-2-2.19,3.22,3.22,0,0,1,2.39-2.73,5.3,5.3,0,0,1,3.54.43c1.07.46,2.05,1.11,3.17,1.49a11.93,11.93,0,0,0,6.72-.08c2.33-.61,4.81-1.6,6.95-.9a4.66,4.66,0,0,1,2,1.35,13.5,13.5,0,0,1,5.36,9.09A20.19,20.19,0,0,1,355.21,137.57Z"/><path class="cls-60" d="M340.08,162s0-2.15-3.31-3.84c0,0,10.6.38,12.54-4.8v4.19A17.85,17.85,0,0,1,340.08,162Z"/><path class="cls-8" d="M265.74,102.26a3.87,3.87,0,0,1-1.5.59,57.28,57.28,0,0,0-13.86,5.33l-.53.29c-.62.34-1.23.7-1.84,1.06s-1.5.94-2.29,1.33a5.1,5.1,0,0,0-1.71-2,.72.72,0,0,0-.73-.15.63.63,0,0,0-.24.35,2.05,2.05,0,0,0,.54,2.21c.19.18.43.37.4.63a.7.7,0,0,1-.14.27l-4,5.59a3.41,3.41,0,0,0-2.58-1.22c-.42.07-.85.39-.82.81.06.81,1.61.93,1.51,1.73a1.06,1.06,0,0,1-.27.51,33.59,33.59,0,0,0-4.39,7.27,10.78,10.78,0,0,1-1.74,3.11,3,3,0,0,1-3.23.91,2.31,2.31,0,0,1-.71-.49,3.49,3.49,0,0,1-.52-.62l-.15-.24a8.45,8.45,0,0,1-1-5,21,21,0,0,1,.87-4.14,1.14,1.14,0,0,1,1.19-.82c.33,0,.7.06,1,.06a.47.47,0,0,0,.26-.86c-.49-.32-1.11-.57-1.29-1.11a1.61,1.61,0,0,1,0-.87,8.64,8.64,0,0,1,1.15-2.75,31.74,31.74,0,0,1,5.07-6.07c.8-.74,1.95-1.48,2.89-.94.55.32,1.09,1,1.64.73a1.86,1.86,0,0,1-.05-2.16,5,5,0,0,1,1.75-1.49,41.72,41.72,0,0,1,6.24-3.11,1.27,1.27,0,0,1,.76-.14,1.3,1.3,0,0,1,.56.31l2.07,1.63.12.09,0-.12c-.23-1-.46-2-.7-3a.94.94,0,0,1,0-.74.9.9,0,0,1,.6-.31,24.63,24.63,0,0,1,15.06,1.46,1.71,1.71,0,0,1,.95.73A1.24,1.24,0,0,1,265.74,102.26Z"/><path class="cls-6" d="M258.49,101.07a34.57,34.57,0,0,0-8.45,1.72.31.31,0,0,0-.51.17,34.05,34.05,0,0,0-6.31,3,5.53,5.53,0,0,1-.6-2.14c0-.39-.64-.4-.61,0a6.25,6.25,0,0,0,.69,2.47,33.07,33.07,0,0,0-6.59,5.46c-.68.73-1.32,1.49-1.93,2.27a1.63,1.63,0,0,0-1.19-.51.31.31,0,0,0,0,.61,1,1,0,0,1,.79.34l0,0-.67.92a.19.19,0,0,0-.05-.1,9.71,9.71,0,0,0-1.88-1.68c-.33-.22-.64.3-.32.52a9.13,9.13,0,0,1,1.76,1.58.28.28,0,0,0,.21.1,33.53,33.53,0,0,0-3.14,5.73c-.28.66-.53,1.32-.78,2a2.29,2.29,0,0,0-1.86-.87c-.39,0-.4.61,0,.6a1.71,1.71,0,0,1,1.5.79.31.31,0,0,0,.14.12c-.46,1.32-.88,2.66-1.24,4a9.67,9.67,0,0,0-.07,6.13c.13.36.72.21.58-.16-.82-2.18-.36-4.38.29-6.54a56,56,0,0,1,2-5.88,33.12,33.12,0,0,1,6.54-9.9l.16-.17a3.87,3.87,0,0,1,2.14,1.14c.27.29.71-.14.44-.42a4.45,4.45,0,0,0-2.07-1.23,33.13,33.13,0,0,1,12.25-7.63,26.61,26.61,0,0,1,1.3,2.48c.16.36.69.06.53-.3-.38-.81-.79-1.61-1.24-2.38a33.84,33.84,0,0,1,8.11-1.63C258.87,101.65,258.88,101,258.49,101.07Z"/><path class="cls-6" d="M250.38,108.18l-.53.29a10.48,10.48,0,0,1-.76-2.36c-.07-.39.52-.54.59-.16A10.31,10.31,0,0,0,250.38,108.18Z"/><path class="cls-6" d="M234.74,122.1a31.44,31.44,0,0,1-3.28-2c-.32-.23-.63.29-.31.52a32.38,32.38,0,0,0,3.27,2C234.77,122.8,235.08,122.28,234.74,122.1Z"/><path class="cls-6" d="M231.94,123a.3.3,0,0,0-.17.58,4,4,0,0,1,1.85,1.21c.26.29.69-.13.44-.43A4.57,4.57,0,0,0,231.94,123Z"/><path class="cls-8" d="M130.15,280.46a3.77,3.77,0,0,1-1.51-.58,57.12,57.12,0,0,0-13.79-5.51l-.59-.15c-.68-.17-1.37-.32-2.07-.47-.86-.17-1.73-.33-2.58-.58a5.07,5.07,0,0,0,.12-2.65c0-.26-.17-.55-.43-.61a.63.63,0,0,0-.42.09,2.08,2.08,0,0,0-1.1,2c0,.26.07.57-.14.73a.57.57,0,0,1-.28.11l-6.71,1.41a3.39,3.39,0,0,0-1.07-2.65.88.88,0,0,0-1.15,0c-.5.64.56,1.78-.06,2.3a1,1,0,0,1-.55.19,33.28,33.28,0,0,0-8.16,2.35,10.67,10.67,0,0,1-3.39,1.09,3,3,0,0,1-3-1.52,2.7,2.7,0,0,1-.19-.84,3.18,3.18,0,0,1,0-.81,2.74,2.74,0,0,1,0-.28,8.33,8.33,0,0,1,2.69-4.35,20.84,20.84,0,0,1,3.44-2.45,1.14,1.14,0,0,1,1.43.21c.22.24.48.51.73.75a.47.47,0,0,0,.77-.46c-.14-.57-.43-1.17-.19-1.69a1.62,1.62,0,0,1,.61-.61,8.64,8.64,0,0,1,2.72-1.25,32.4,32.4,0,0,1,7.84-1c1.09,0,2.43.24,2.76,1.28.19.6.08,1.5.7,1.64a1.84,1.84,0,0,1,1.43-1.61,5,5,0,0,1,2.3.09,42.46,42.46,0,0,1,6.7,2,1.34,1.34,0,0,1,.65.41,1.47,1.47,0,0,1,.2.61c.13.87.27,1.74.41,2.6a1,1,0,0,1,0,.16.75.75,0,0,0,.07-.12c.51-.9,1-1.8,1.55-2.7.12-.22.28-.47.52-.53a1,1,0,0,1,.66.19,24.67,24.67,0,0,1,10,11.3,1.77,1.77,0,0,1,.21,1.18A1.25,1.25,0,0,1,130.15,280.46Z"/><path class="cls-6" d="M125.63,274.67a34.79,34.79,0,0,0-7.36-4.49.31.31,0,0,0-.5-.21,33.69,33.69,0,0,0-6.66-2.1,5.77,5.77,0,0,1,1-2c.25-.3-.19-.72-.44-.41a6.34,6.34,0,0,0-1.17,2.28,33,33,0,0,0-8.55-.47c-1,.07-2,.19-2.95.35a1.61,1.61,0,0,0-.53-1.18c-.29-.26-.71.17-.42.44a1,1,0,0,1,.35.78s0,.05,0,.07l-1.11.22,0-.11a9.6,9.6,0,0,0-.25-2.51c-.09-.38-.67-.21-.58.17a8.84,8.84,0,0,1,.22,2.35.23.23,0,0,0,.08.21,34.23,34.23,0,0,0-6.2,2.08q-1,.44-1.92.93a2.35,2.35,0,0,0-.77-1.91c-.29-.26-.71.18-.42.44a1.75,1.75,0,0,1,.57,1.6.22.22,0,0,0,0,.18c-1.24.65-2.45,1.35-3.63,2.09a9.68,9.68,0,0,0-4.21,4.44c-.15.36.39.65.53.29.88-2.17,2.71-3.47,4.66-4.61a56.6,56.6,0,0,1,5.49-2.93,33.09,33.09,0,0,1,11.53-2.82h.23a3.85,3.85,0,0,1,.79,2.29.31.31,0,0,0,.61,0,4.44,4.44,0,0,0-.68-2.3,32.88,32.88,0,0,1,14.17,2.73c-.2.91-.44,1.81-.73,2.7-.12.37.47.51.59.14.28-.85.51-1.72.71-2.59a33.93,33.93,0,0,1,7.06,4.32C125.52,275.35,125.94,274.91,125.63,274.67Z"/><path class="cls-6" d="M114.85,274.37l-.59-.15a10.51,10.51,0,0,1,1.06-2.25c.21-.33.74,0,.53.29A10.2,10.2,0,0,0,114.85,274.37Z"/><path class="cls-6" d="M93.91,274a34.09,34.09,0,0,1-1-3.72c-.08-.38-.66-.21-.58.17a30.11,30.11,0,0,0,1,3.72C93.46,274.49,94,274.32,93.91,274Z"/><path class="cls-6" d="M91.26,272.7a.31.31,0,0,0-.53.31,4,4,0,0,1,.55,2.15c0,.39.59.37.6,0A4.56,4.56,0,0,0,91.26,272.7Z"/><path class="cls-8" d="M389.66,149.05a3.87,3.87,0,0,1,.08-1.62,57.53,57.53,0,0,0,.88-14.82c0-.2,0-.39-.05-.6-.05-.7-.12-1.41-.21-2.11-.1-.88-.23-1.75-.26-2.63a5.16,5.16,0,0,0,2.56-.73c.22-.13.46-.34.43-.6a.61.61,0,0,0-.21-.36,2.08,2.08,0,0,0-2.24-.43c-.24.1-.52.25-.73.11a.66.66,0,0,1-.2-.24l-3.45-5.93c.91-.39,1.92-.89,2.18-1.84a.88.88,0,0,0-.4-1.08c-.76-.28-1.51,1.09-2.2.67a1.23,1.23,0,0,1-.35-.46,33.24,33.24,0,0,0-4.8-7,10.48,10.48,0,0,1-2.11-2.87,3,3,0,0,1,.5-3.32,2.42,2.42,0,0,1,.74-.44,3.9,3.9,0,0,1,.78-.22l.28,0a8.51,8.51,0,0,1,5,1.18,21.33,21.33,0,0,1,3.41,2.5,1.14,1.14,0,0,1,.25,1.43c-.16.28-.33.6-.48.92a.47.47,0,0,0,.68.59c.49-.32,1-.78,1.54-.72a1.78,1.78,0,0,1,.78.38,8.63,8.63,0,0,1,2,2.19,31.85,31.85,0,0,1,3.43,7.13c.34,1,.54,2.38-.34,3-.52.37-1.4.56-1.34,1.19a1.84,1.84,0,0,1,2,.85,5.07,5.07,0,0,1,.65,2.21,43.84,43.84,0,0,1,.25,7,1.05,1.05,0,0,1-.7,1.13l-2.35,1.21-.13.07.12,0,3.06.61a.93.93,0,0,1,.66.34.86.86,0,0,1,0,.67,24.66,24.66,0,0,1-7.54,13.11,1.75,1.75,0,0,1-1.06.57A1.25,1.25,0,0,1,389.66,149.05Z"/><path class="cls-6" d="M393.74,142.94a34.91,34.91,0,0,0,1.93-8.41.31.31,0,0,0,.05-.53,34.63,34.63,0,0,0-.11-7,5.51,5.51,0,0,1,2.2.33c.36.14.62-.41.26-.55a6.47,6.47,0,0,0-2.54-.39,32.87,32.87,0,0,0-2.25-8.26c-.38-.92-.8-1.81-1.26-2.69a1.64,1.64,0,0,0,1-.88.3.3,0,0,0-.55-.26,1,1,0,0,1-.64.58l-.06,0c-.18-.33-.36-.66-.55-1h.11a9.69,9.69,0,0,0,2.3-1c.34-.2,0-.7-.34-.5a8.57,8.57,0,0,1-2.17,1,.29.29,0,0,0-.17.15,33.33,33.33,0,0,0-3.93-5.22c-.48-.53-1-1-1.49-1.54a2.33,2.33,0,0,0,1.57-1.33.3.3,0,0,0-.55-.26,1.72,1.72,0,0,1-1.33,1,.3.3,0,0,0-.17.08c-1-1-2.06-1.9-3.12-2.78a9.73,9.73,0,0,0-5.55-2.6c-.38,0-.49.57-.1.6,2.33.15,4.14,1.48,5.84,3a55.37,55.37,0,0,1,4.51,4.29,33.12,33.12,0,0,1,6.31,10l.09.22a3.87,3.87,0,0,1-1.93,1.47.3.3,0,0,0,.21.57,4.35,4.35,0,0,0,2-1.37A33,33,0,0,1,395.11,134c-.92.1-1.85.15-2.79.16-.39,0-.33.6.06.6a26.53,26.53,0,0,0,2.67-.14,34,34,0,0,1-1.86,8.06C393.05,143.05,393.6,143.31,393.74,142.94Z"/><path class="cls-6" d="M390.62,132.61c0-.2,0-.39-.05-.6a10.3,10.3,0,0,1,2.47.29c.38.1.28.7-.1.6A10.75,10.75,0,0,0,390.62,132.61Z"/><path class="cls-6" d="M384.41,112.62a31.37,31.37,0,0,1,3.2-2.15c.34-.19,0-.69-.34-.5a32.65,32.65,0,0,0-3.21,2.15C383.75,112.35,384.1,112.85,384.41,112.62Z"/><path class="cls-6" d="M384.75,109.7c.26-.29-.2-.69-.46-.4a3.88,3.88,0,0,1-1.86,1.19c-.37.12-.17.69.21.58A4.56,4.56,0,0,0,384.75,109.7Z"/><path class="cls-8" d="M362.28,53.87a3.91,3.91,0,0,1-1.13-1.16A57.31,57.31,0,0,0,350.88,42l-.47-.38c-.55-.44-1.12-.87-1.69-1.28-.72-.52-1.44-1-2.11-1.6a5.16,5.16,0,0,0,1.21-2.37c.05-.25.07-.57-.14-.72a.62.62,0,0,0-.42-.1,2.08,2.08,0,0,0-1.83,1.36c-.09.24-.17.54-.42.6a.65.65,0,0,1-.31,0L338,36a3.36,3.36,0,0,0,.13-2.85.89.89,0,0,0-1.07-.44c-.72.37-.22,1.85-1,2.07a1.16,1.16,0,0,1-.58-.06,33.59,33.59,0,0,0-8.4-1.24,10.49,10.49,0,0,1-3.54-.41,3,3,0,0,1-2.09-2.62,2.22,2.22,0,0,1,.18-.84,3.27,3.27,0,0,1,.37-.72,1.88,1.88,0,0,1,.16-.23,8.45,8.45,0,0,1,4.25-2.86,21.59,21.59,0,0,1,4.15-.8,1.15,1.15,0,0,1,1.22.79,8.26,8.26,0,0,0,.35,1,.47.47,0,0,0,.89-.1c.11-.57.09-1.24.52-1.61a1.73,1.73,0,0,1,.81-.32,8.83,8.83,0,0,1,3,0,31.71,31.71,0,0,1,7.56,2.34c1,.45,2.11,1.22,2,2.3-.08.63-.55,1.41,0,1.79a1.82,1.82,0,0,1,2-.87,5,5,0,0,1,2.06,1,44.06,44.06,0,0,1,5.28,4.56,1.38,1.38,0,0,1,.42.65,1.35,1.35,0,0,1-.07.63c-.23.85-.47,1.7-.7,2.55a.74.74,0,0,0,0,.14l.1-.07,2.53-1.82a1,1,0,0,1,.7-.26.9.9,0,0,1,.51.43,24.66,24.66,0,0,1,4.48,14.45,1.87,1.87,0,0,1-.3,1.17A1.27,1.27,0,0,1,362.28,53.87Z"/><path class="cls-6" d="M360.57,46.72a34.76,34.76,0,0,0-4.85-7.13.3.3,0,0,0-.35-.4,33.9,33.9,0,0,0-5.2-4.67,5.68,5.68,0,0,1,1.74-1.38c.35-.18.13-.75-.22-.57a6.54,6.54,0,0,0-2,1.59,32.94,32.94,0,0,0-7.58-4,29,29,0,0,0-2.83-.9,1.63,1.63,0,0,0,0-1.3c-.15-.36-.72-.13-.56.23a1,1,0,0,1,0,.86s0,0,0,.06l-1.1-.26a.31.31,0,0,0,.07-.09,9.66,9.66,0,0,0,.82-2.39c.07-.38-.53-.47-.6-.08a8.82,8.82,0,0,1-.78,2.23.27.27,0,0,0,0,.23,33.83,33.83,0,0,0-6.5-.68c-.71,0-1.43,0-2.14.05a2.33,2.33,0,0,0,.09-2.06c-.16-.36-.72-.13-.56.23a1.73,1.73,0,0,1-.15,1.69.32.32,0,0,0-.06.18c-1.39.08-2.79.21-4.16.39a9.75,9.75,0,0,0-5.68,2.3c-.28.27.09.75.37.48,1.7-1.6,3.9-2,6.15-2.26a53.78,53.78,0,0,1,6.21-.39,33.18,33.18,0,0,1,11.66,2.2l.22.09a3.84,3.84,0,0,1-.23,2.41.3.3,0,0,0,.56.24,4.43,4.43,0,0,0,.33-2.38A33,33,0,0,1,355,39.63c-.56.75-1.16,1.47-1.79,2.16-.26.28.22.65.48.37.61-.66,1.18-1.35,1.72-2.06A33.83,33.83,0,0,1,360,47C360.19,47.3,360.75,47.07,360.57,46.72Z"/><path class="cls-6" d="M350.88,42l-.47-.38A10.06,10.06,0,0,1,352.3,40c.33-.21.7.27.37.48A10,10,0,0,0,350.88,42Z"/><path class="cls-6" d="M332,32.94a30.83,30.83,0,0,1,.61-3.81c.08-.38-.52-.47-.6-.09a30.83,30.83,0,0,0-.61,3.81C331.36,33.24,332,33.33,332,32.94Z"/><path class="cls-6" d="M330.09,30.7c0-.39-.64-.32-.6.07a4,4,0,0,1-.39,2.17c-.17.36.39.59.56.24A4.59,4.59,0,0,0,330.09,30.7Z"/><rect class="cls-61" x="138.68" y="34.07" width="3.3" height="27.47" transform="translate(286.78 70.79) rotate(170.11)"/><path class="cls-8" d="M143.26,64.59h0a1.65,1.65,0,0,0,1.34-1.91l-.28-1.63-3.26.57.28,1.63A1.66,1.66,0,0,0,143.26,64.59Z"/><polygon class="cls-8" points="136.34 34.55 139.6 33.99 138.05 31.54 136.97 31.72 136.34 34.55"/><polygon class="cls-38" points="136.97 31.72 138.05 31.54 137.28 30.33 136.97 31.72"/><rect class="cls-38" x="140.92" y="60.02" width="3.3" height="1.32" transform="matrix(-0.99, 0.17, -0.17, -0.99, 293.45, 95.97)"/><rect class="cls-61" x="421.71" y="148.6" width="3.3" height="27.47" transform="translate(283.51 -268.98) rotate(51.06)"/><path class="cls-8" d="M436.62,151.62h0a1.65,1.65,0,0,0-2.32-.25l-1.29,1,2.08,2.57,1.28-1A1.65,1.65,0,0,0,436.62,151.62Z"/><polygon class="cls-8" points="413.72 172.25 411.64 169.68 410.25 172.23 410.94 173.08 413.72 172.25"/><polygon class="cls-38" points="410.94 173.08 410.25 172.23 409.57 173.48 410.94 173.08"/><rect class="cls-38" x="431.88" y="153.45" width="3.3" height="1.32" transform="translate(280.89 -279.94) rotate(51.05)"/><rect class="cls-61" x="70.13" y="227.39" width="3.3" height="27.47" transform="translate(-161.55 147.03) rotate(-51.46)"/><path class="cls-8" d="M58.45,230.51h0a1.65,1.65,0,0,0,.26,2.32l1.3,1,2.05-2.58-1.29-1A1.65,1.65,0,0,0,58.45,230.51Z"/><polygon class="cls-8" points="83.55 248.4 81.5 250.98 84.28 251.78 84.96 250.93 83.55 248.4"/><polygon class="cls-38" points="84.96 250.93 84.28 251.78 85.65 252.18 84.96 250.93"/><rect class="cls-38" x="59.9" y="232.32" width="3.3" height="1.32" transform="translate(-159.03 135.96) rotate(-51.46)"/><path class="cls-62" d="M153,149.86"/></g></g></svg>