<svg id="Layer_1" data-name="Layer 1" xmlns="http://www.w3.org/2000/svg" viewBox="0 0 512 512"><defs><style>.cls-1{fill:none;stroke:#09213a;stroke-linecap:round;stroke-linejoin:round;stroke-width:16px;}</style></defs><title>earth-link</title><path class="cls-1" d="M484.15,244.91h0s0,0,0,0A228.49,228.49,0,0,0,349.23,41.28l-.67-.31-1.57-.7A228.08,228.08,0,0,0,46.83,158.51c-49.93,114.82,2,248.24,116.08,299.19l2.16,1q8.7,3.78,17.54,6.79"/><path class="cls-1" d="M182.25,464.08a85.63,85.63,0,0,1-17.18-5.41l-2.16-1C114.3,435,92.45,369.22,101.71,292.06c3.76-31.45,12.7-64.8,27.1-97.91s32.69-62.39,53.12-86.59C232.78,47.3,296.86,18.47,347,40.27l1.57.7.67.31c48.56,22.79,70.37,88.48,61.12,165.6a324,324,0,0,1-6.26,35.35"/><line class="cls-1" x1="346.99" y1="40.27" x2="165.06" y2="458.67"/><path class="cls-1" d="M479.07,201.56C428.36,214.36,358,206.47,288,176S164.17,99.48,139,53.67"/><path class="cls-1" d="M275.75,349.92h0a403.16,403.16,0,0,0-51.65-27c-42.14-18.32-84.38-28.48-122.38-30.88-25.19-1.59-48.51.22-68.72,5.32"/><polyline class="cls-1" points="347.87 289.4 256.03 249.47 128.81 194.15 46.83 158.51"/><path class="cls-1" d="M348.1,400.29a38.42,38.42,0,0,1-13.16,35.82l-54.37,45.62A38.36,38.36,0,1,1,231.25,423l54.37-45.62a38.34,38.34,0,0,1,37.56-6.75"/><path class="cls-1" d="M371,381a38.35,38.35,0,0,0,37.57-6.74L463,328.68a38.37,38.37,0,1,0-49.32-58.78l-54.37,45.62a38.5,38.5,0,0,0-13.17,35.82"/><line class="cls-1" x1="294.33" y1="420.1" x2="399.88" y2="331.53"/><line class="cls-1" x1="275.75" y1="349.92" x2="275.74" y2="349.92"/></svg>