<svg id="Layer_1" data-name="Layer 1" xmlns="http://www.w3.org/2000/svg" xmlns:xlink="http://www.w3.org/1999/xlink" viewBox="0 0 512 512"><defs><style>.cls-1,.cls-12{fill:none;}.cls-2{fill:url(#linear-gradient);}.cls-3{fill:#7c7c7c;}.cls-4{fill:#1e1e1e;}.cls-5{fill:#fff;}.cls-6{isolation:isolate;}.cls-7{clip-path:url(#clip-path);}.cls-8{fill:#0c0c0c;}.cls-9{clip-path:url(#clip-path-2);}.cls-10{fill:#343434;}.cls-11{fill:#e0e0e0;}.cls-12{stroke:#000;stroke-linecap:round;stroke-linejoin:round;}.cls-13{fill:#666;}.cls-14{opacity:0.21;}</style><linearGradient id="linear-gradient" x1="365.95" y1="101.72" x2="336.74" y2="187.08" gradientUnits="userSpaceOnUse"><stop offset="0.2" stop-color="#141414"/><stop offset="1" stop-color="#010101"/></linearGradient><clipPath id="clip-path"><polygon class="cls-1" points="151.67 102.08 101.49 46.58 150.16 18.47 200.34 73.98 151.67 102.08"/></clipPath><clipPath id="clip-path-2"><polygon class="cls-1" points="151.67 95.3 101.49 39.79 150.16 11.69 200.34 67.19 151.67 95.3"/></clipPath></defs><title>intro-flat-cover</title><path class="cls-2" d="M322.39,127.34c-2.76,3-3.6,5.78-3.27,8.09,0,.14,0,.26.06.39a56.14,56.14,0,0,1-8.44,2.71L297.09,170l23.67,3.15c29.74,25.09,58.62,23.16,75.82,12.41s18.81-29.21,9.14-36.37-19.09,2.24-32-2.05c-28.67-9.55-3.27-44.2-35.16-59.25-24.22-11.43-38.31,0-38.31,10.5A21.27,21.27,0,0,0,305.93,113a22.46,22.46,0,0,0,13,6.52Z"/><path class="cls-3" d="M326.52,121.16c-.25-1.72-2.58-3.57-7.56-1.62a22.46,22.46,0,0,1-13-6.52c-6.18,6.85-14.94,16.27-9.83,23.38,2.73,3.83,9.21,3.37,14.64,2.13a56.14,56.14,0,0,0,8.44-2.71c0-.13-.05-.25-.06-.39-.33-2.31.51-5.11,3.27-8.09l.11-.07C326,125.54,326.7,122.42,326.52,121.16Z"/><path class="cls-3" d="M132.18,136.12c-4.77-3.65,6.19,19.71,24.46,20.43l5.38-5.29s-3.89-15.14-14.07-15.14c-2.06,0,8.42,11.92,3.14,10.22S141,142.84,132.18,136.12Z"/><path class="cls-3" d="M127.17,172.09c-5.26-2.9,7.72,18.9,25.9,16.9l4.54-6s-5.33-14.48-15.39-13c-2,.31,9.33,10.62,3.85,9.72S136.85,177.44,127.17,172.09Z"/><path class="cls-3" d="M185.52,386.36c-5.13,11.38-27.44,96.85-29.59,106.8-5.29,2.37-16.45,10.35-23.53,15.84a1.61,1.61,0,0,0,1.5,2.8l32.82-10.87a2.35,2.35,0,0,0,1.28-3.44L166.54,495s46.4-98,45.58-103"/><path class="cls-3" d="M289.31,394.68c13.25,44.78,41.33,81,41.33,81l6.75,2.07a2.31,2.31,0,0,1,1.26,3.46l-19.48,30.17a1.35,1.35,0,0,1-2.45-1l4-19.64c-19.62-20.7-50.8-70.42-58.86-95l4-18.54H293.1Z"/><path class="cls-4" d="M161.67,177.85l-16.5,21c21.24,11,76.34,19.89,117.73-7.8,0,0-4.47,39.78-67.46,78-39.18,23.74-130.36,49.46-80.55,84.67,70.8,50,166.06,53.06,264.4,25.53,47-13.17-48.43-84-65.51-103.47-15.09-17.18-24.74-36.61-21.84-60.23,1.15-9.37,10.47-16.67,16.65-23.1,13.44-14,22.54-38.48,2.38-45.34l-91.8,28.49-53.42-4.18-4.08,6.49"/><path class="cls-5" d="M197.27,69.08,154.61,93.47a.52.52,0,0,0-.67-.1c-1.91.91-5-1.67-5-1.67v.43L104.51,43.32v5.84l44.21,48.71,0,.37c.43.36.85.73,1.32,1.07l.15.16V99.4c1.12.75,2.54,1.21,5,.43,0,0,0-.27.05-.7l42-23.55Z"/><g class="cls-6"><g class="cls-7"><path class="cls-8" d="M153.9,99.72a3.49,3.49,0,0,1-4.07-.88L104.77,49c-1.06-1.17-1-2.67.23-3.36l42.94-24.8a3.49,3.49,0,0,1,4.07.89l45.06,49.85c1.06,1.17,1,2.67-.23,3.35L153.9,99.72m-6.6-79.59L104.36,44.92c-1.59.91-1.72,2.93-.31,4.49l45.06,49.85a4.65,4.65,0,0,0,5.43,1.17l42.94-24.8c1.58-.91,1.72-2.91.31-4.48L152.72,21.3a4.62,4.62,0,0,0-5.42-1.17"/></g></g><g class="cls-6"><g class="cls-9"><path class="cls-10" d="M152.07,54.76h0l-1.89-4.43a2.11,2.11,0,0,1-.17-.41.72.72,0,0,1,0-.32.45.45,0,0,1,.12-.26,1.13,1.13,0,0,1,.28-.21l.85-.49a.58.58,0,0,1,.25-.09h.24l.23.1a2,2,0,0,1,.22.2l4.92,5.43,0,.11,0,.11a.59.59,0,0,1-.16.15,2.32,2.32,0,0,1-.28.18,1.34,1.34,0,0,1-.29.15.9.9,0,0,1-.22.07H156l-.11-.07-4.49-5h0l2.7,6,0,.13-.06.13a.86.86,0,0,1-.17.15,2.47,2.47,0,0,1-.26.16,2.74,2.74,0,0,1-.29.15l-.23.08H153l-.14,0-6.21-4h0l4.49,5,.06.1-.05.12a.51.51,0,0,1-.15.14,1.79,1.79,0,0,1-.27.18l-.3.16a.82.82,0,0,1-.22.06H150l-.11-.07L145,53a.66.66,0,0,1-.21-.45.39.39,0,0,1,.24-.31l.82-.48a2.44,2.44,0,0,1,.41-.19,1.2,1.2,0,0,1,.38,0,1,1,0,0,1,.39.1c.12.07.27.15.43.26l4.62,2.86m-.5-10.7-12.06,7,10.76,11.89,12-7L151.57,44.06m-27.18-9.2.06,0,.75-.43a.85.85,0,0,0,.08-1.37l-2.86-3.17a.17.17,0,0,1,0-.28.28.28,0,0,1,.34.07l2.87,3.17a1.2,1.2,0,0,1-.14,1.93l-.75.43s-.05,0-.07,0l6.78,7.5a2.25,2.25,0,0,0,2.62.57l1.19-.69-3-3.36a.2.2,0,0,1,0-.29.32.32,0,0,1,.35.08l3.19,3.54L138.9,46l2.74,3,2.5-1.45L134.3,36.66l-.32.19a2.26,2.26,0,0,1-2.65-.57l-3.48-3.85a.17.17,0,0,1,0-.28.3.3,0,0,1,.34.07l3.48,3.85a1.68,1.68,0,0,0,2,.43l.32-.19-1.06-1.17a.2.2,0,0,1,0-.29.29.29,0,0,1,.34.08l1.23,1.35,4.65,5.15,1.41-.81a.94.94,0,0,0,.1-1.51l-6.84-7.56-1.05.61a1.52,1.52,0,0,1-1.77-.38l-2.62-2.91c-.09-.1-.09-.22,0-.28a.28.28,0,0,1,.33.07l2.63,2.91a1,1,0,0,0,1.09.24l1.06-.62-1.88-2.07a.17.17,0,0,1,0-.27.29.29,0,0,1,.34.06l2,2.25,7,7.74a1.29,1.29,0,0,1-.14,2.08l-1.4.81,5,5.54L149,44.72l-9.85-10.89a.19.19,0,0,1,0-.29.32.32,0,0,1,.34.08l6,6.62,1.18-.68a.83.83,0,0,0,.09-1.34l-8.72-9.65a.17.17,0,0,1,0-.28.27.27,0,0,1,.33.08L147.15,38a1.18,1.18,0,0,1-.13,1.9l-1.17.68,3.54,3.92,2-1.13a.38.38,0,0,1,.26,0,.46.46,0,0,1,.25.15l2.34,2.59,1.45-.84-2-2.23-3.3-3.65a.18.18,0,0,1,0-.29.3.3,0,0,1,.34.08L154,42.8,156,45l1.6-.92,2-1.14a.29.29,0,0,1,.34.07c.1.1.09.22,0,.28l-1.79,1,.23.25a1.21,1.21,0,0,0,1.42.31l2.57-1.49-2.7-3a1.75,1.75,0,0,1,.19-2.82L162.64,36a.28.28,0,0,1,.34.07c.09.1.09.22,0,.28L160.15,38a1.4,1.4,0,0,0-.16,2.25l2.71,3,1.53-.88a.28.28,0,0,1,.34.07.17.17,0,0,1,0,.28l-4.46,2.57a1.79,1.79,0,0,1-2.1-.45l-.23-.25-3.23,1.86,4.1,4.53L161,49.6l-.64-.7a1.27,1.27,0,0,1,.15-2l7-4a.28.28,0,0,1,.34.07c.09.1.09.22,0,.28l-7,4.05a.91.91,0,0,0-.1,1.48l.63.7,2.27-1.31,2.1-1.21a.27.27,0,0,1,.33.07.17.17,0,0,1,0,.28l-1.93,1.11,2.76,3.06a1.6,1.6,0,0,0,1.86.41l2.14-1.24a.28.28,0,0,1,.34.07.17.17,0,0,1,0,.28l-2.14,1.24a2.15,2.15,0,0,1-2.53-.55l-2.77-3.06L159,51.32l4.15,4.59a.39.39,0,0,1,.1.24.35.35,0,0,1-.13.19l-2.51,1.45,2.64,2.92L166,59.1a1.56,1.56,0,0,0,.18-2.52l-2.72-3a.18.18,0,0,1,0-.28.29.29,0,0,1,.34.08l2.71,3c1,1.08.88,2.45-.21,3.08l-2.79,1.61,3.19,3.54,3.35,3.7a.17.17,0,0,1,0,.28.28.28,0,0,1-.34-.08L166.52,65l-.67.38a1,1,0,0,0-.12,1.63L169,70.56s0,0,0,0l3-1.72a2.38,2.38,0,0,1,2.83.48l3.93,4.35c.09.1.09.22,0,.28a.29.29,0,0,1-.34-.08l-3.94-4.35a1.73,1.73,0,0,0-1-.52,1.79,1.79,0,0,0-1.15.2l-3,1.71,0,0,1.67,1.85a.18.18,0,0,1,0,.28.31.31,0,0,1-.35-.07l-5.2-5.76a1.36,1.36,0,0,1,.15-2.19l.67-.39-6-6.63-2,1.16,1.38,1.53,3.4,3.76a.18.18,0,0,1,0,.28.3.3,0,0,1-.35-.08l-3.23-3.58-.66.38a.94.94,0,0,0-.12,1.52L164,68.9a.18.18,0,0,1,0,.28.31.31,0,0,1-.34-.07l-5.37-5.94a1.31,1.31,0,0,1,.15-2.09l.66-.38-1.22-1.35-4.5,2.6,2.81,3.1L158,67.13a.24.24,0,0,1,.14.09.31.31,0,0,1,.06.13l2.48,2.75a.17.17,0,0,1,0,.28.28.28,0,0,1-.34-.07l-2.42-2.68-.32.18a.76.76,0,0,0-.09,1.23l3.95,4.37,1.53-.89a2.42,2.42,0,0,1,2.82.62L170,77.8a.17.17,0,0,1,0,.28.28.28,0,0,1-.34-.08l-4.21-4.66a1.82,1.82,0,0,0-2.14-.46l-1.54.89,1.87,2.06c.09.11.08.23,0,.29a.3.3,0,0,1-.34-.08l-6.14-6.79a1.12,1.12,0,0,1,.13-1.8l.31-.18L156,65.43,151.57,68a1.14,1.14,0,0,0-.12,1.82l2,2.2,1.12-.64a2.23,2.23,0,0,1,2.61.56l10.2,11.28c.08.1.08.22,0,.28a.3.3,0,0,1-.34-.07L156.83,72.11a1.67,1.67,0,0,0-1.94-.42l-1.12.65,8.82,9.76a.17.17,0,0,1,0,.28.3.3,0,0,1-.34-.07L151.09,70a1.48,1.48,0,0,1,.17-2.38l4.38-2.53L153,62.16l-2.51,1.45a.38.38,0,0,1-.26,0,.51.51,0,0,1-.26-.14l-1.86-2.07-3,1.74.87,1a1.26,1.26,0,0,1-.13,2l-5.64,3.25a.29.29,0,0,1-.34-.08.18.18,0,0,1,0-.28l5.64-3.25a.92.92,0,0,0,.1-1.47l-.87-1-3.28,1.89a.27.27,0,0,1-.33-.08.17.17,0,0,1,0-.28l3.46-2,3.17-1.84-5.16-5.71-1.61.93,1.58,1.76a1.31,1.31,0,0,1-.15,2.12l-5.07,2.93.33.36a1.13,1.13,0,0,1-.13,1.83l-1.8,1a.29.29,0,0,1-.34-.07.18.18,0,0,1,0-.29l1.8-1a.78.78,0,0,0,.09-1.26l-.33-.36-1.53.88a.29.29,0,0,1-.34-.08.18.18,0,0,1,0-.28l1.71-1,2.38-1.38-.47-.51a1.1,1.1,0,0,0-1.29-.28l-5.57,3.21a.28.28,0,0,1-.34-.07.18.18,0,0,1,0-.28l5.57-3.22a1.68,1.68,0,0,1,2,.43l.47.51,2.51-1.45a1,1,0,0,0,.11-1.55l-1.59-1.76-1.24.72a.27.27,0,0,1-.33-.07.17.17,0,0,1,0-.28l1.42-.82,1.79-1-3.56-3.94a.38.38,0,0,1-.09-.24.25.25,0,0,1,.12-.18l2.52-1.45-2.58-2.85-9.19,5.3a1.43,1.43,0,0,0-.16,2.3l3.3,3.65c.08.1.08.23,0,.28a.28.28,0,0,1-.34-.07L129,54.16a1.78,1.78,0,0,1,.21-2.87l9.19-5.3-2.78-3.07-1.19.69a2.81,2.81,0,0,1-3.3-.71l-10-11.09a.18.18,0,0,1,0-.29.3.3,0,0,1,.34.08l3,3.26m23.55-20.81L105,38.84c-1.19.69-1.29,2.19-.24,3.36l45.07,49.86a3.48,3.48,0,0,0,4.07.87l42.94-24.79c1.18-.69,1.29-2.19.23-3.36L152,14.93a3.47,3.47,0,0,0-4.06-.88"/><path class="cls-8" d="M153.9,92.93a3.48,3.48,0,0,1-4.07-.87L104.76,42.2c-1.05-1.17-1-2.67.24-3.36l42.94-24.79a3.47,3.47,0,0,1,4.06.88l45.07,49.85c1.06,1.17,1,2.67-.23,3.36L153.9,92.93m-6.6-79.59L104.36,38.13c-1.59.92-1.73,2.92-.32,4.48l45.07,49.86a4.65,4.65,0,0,0,5.43,1.17l42.94-24.79c1.58-.92,1.72-2.92.31-4.48L152.72,14.51a4.63,4.63,0,0,0-5.42-1.17"/><path d="M150.27,62.91,139.51,51l12.06-7L162.32,56l-12,7m1.09-19.53-2,1.13.24.27a.17.17,0,0,1,0,.28.28.28,0,0,1-.34-.08l-.24-.26-4.54,2.61.24.27c.09.1.09.23,0,.28a.28.28,0,0,1-.34-.07l-.24-.27L141.64,49l.24.26a.18.18,0,0,1,0,.29.3.3,0,0,1-.34-.08l-.24-.26-2.52,1.45a.25.25,0,0,0-.12.18.38.38,0,0,0,.09.24L142.29,55l.28-.16a.3.3,0,0,1,.34.08.18.18,0,0,1,0,.28l-.27.15,5.16,5.71.28-.15a.28.28,0,0,1,.34.07c.08.1.08.23,0,.28l-.27.16L150,63.5a.51.51,0,0,0,.26.14.38.38,0,0,0,.26,0L153,62.16l-.24-.27a.17.17,0,0,1,0-.28.28.28,0,0,1,.34.07l.24.27,4.5-2.6-.24-.27a.17.17,0,0,1,0-.28.27.27,0,0,1,.33.08l.25.27,2-1.16-.24-.27a.17.17,0,0,1,0-.28.3.3,0,0,1,.34.08l.24.27,2.51-1.45a.35.35,0,0,0,.13-.19.39.39,0,0,0-.1-.24l-.27.16-.24-.27.24.27.27-.16L159,51.32l-.28.15a.26.26,0,0,1-.33-.08.16.16,0,0,1,0-.27l.27-.16-4.1-4.53-.27.16a.3.3,0,0,1-.34-.08.18.18,0,0,1,0-.28l.27-.15-2.34-2.59a.46.46,0,0,0-.25-.15.38.38,0,0,0-.26,0"/><path class="cls-11" d="M151.26,48.63l-.85.49a1.13,1.13,0,0,0-.28.21.45.45,0,0,0-.12.26.72.72,0,0,0,0,.32,2.11,2.11,0,0,0,.17.41l1.89,4.43h0l-4.62-2.86c-.16-.11-.31-.19-.43-.26a1,1,0,0,0-.39-.1,1.2,1.2,0,0,0-.38,0,2.44,2.44,0,0,0-.41.19l-.82.48a.39.39,0,0,0-.24.31A.66.66,0,0,0,145,53l4.91,5.44.11.07h.15a.82.82,0,0,0,.22-.06l.3-.16a1.79,1.79,0,0,0,.27-.18.51.51,0,0,0,.15-.14l.05-.12-.06-.1-4.49-5h0l6.21,4,.14,0h.17l.23-.08a2.74,2.74,0,0,0,.29-.15,2.47,2.47,0,0,0,.26-.16.86.86,0,0,0,.17-.15l.06-.13,0-.13-2.7-6h0l4.49,5L156,55h.15a.9.9,0,0,0,.22-.07,1.34,1.34,0,0,0,.29-.15,2.32,2.32,0,0,0,.28-.18.59.59,0,0,0,.16-.15l0-.11,0-.11-4.92-5.43a2,2,0,0,0-.22-.2l-.23-.1h-.24a.58.58,0,0,0-.25.09"/><path d="M138.9,46a.17.17,0,0,1,0,.28l-.18.11,2.58,2.85.24.26a.3.3,0,0,0,.34.08.18.18,0,0,0,0-.29l-.24-.26-2.74-3m-3.1-3.42a.18.18,0,0,1,0,.28l-.19.1L138.38,46l.18-.11a.3.3,0,0,1,.34.08l-3.1-3.42m-3.54-3.62a.2.2,0,0,0,0,.29l3,3.36.18-.11a.29.29,0,0,1,.34.08L132.61,39a.32.32,0,0,0-.35-.08"/><path d="M121.1,31.52a.18.18,0,0,0,0,.29l10,11.09a2.81,2.81,0,0,0,3.3.71l1.19-.69.19-.1a.18.18,0,0,0,0-.28.29.29,0,0,0-.34-.08l-.18.11-1.19.69a2.25,2.25,0,0,1-2.62-.57l-6.78-7.5a.32.32,0,0,1-.27-.1.19.19,0,0,1,0-.23l-3-3.26a.3.3,0,0,0-.34-.08"/><path d="M122.44,29.56a.17.17,0,0,0,0,.28L125.28,33a.85.85,0,0,1-.08,1.37l-.75.43-.06,0a.19.19,0,0,0,0,.23.32.32,0,0,0,.27.1s0,0,.07,0l.75-.43a1.2,1.2,0,0,0,.14-1.93l-2.87-3.17a.28.28,0,0,0-.34-.07"/><path d="M134.51,36.28a.18.18,0,0,1,0,.28l-.18.1,9.84,10.88.24.27a.28.28,0,0,0,.34.07c.11-.05.11-.18,0-.28l-.24-.27-5-5.54-.19.1a.28.28,0,0,1-.34-.07c-.08-.1-.08-.23,0-.28l.18-.11-4.65-5.15m-1.57-1.43a.2.2,0,0,0,0,.29L134,36.31l.18-.1a.3.3,0,0,1,.35.07l-1.23-1.35a.29.29,0,0,0-.34-.08"/><path d="M134,31.16a.18.18,0,0,1,0,.28l-.19.11,6.84,7.56a.94.94,0,0,1-.1,1.51l-1.41.81-.18.11c-.1.05-.1.18,0,.28a.28.28,0,0,0,.34.07l.19-.1,1.4-.81A1.29,1.29,0,0,0,141,38.9l-7-7.74m-2.37-2.31a.17.17,0,0,0,0,.27l1.88,2.07.18-.1a.28.28,0,0,1,.34.07l-2-2.25a.29.29,0,0,0-.34-.06"/><path d="M128.41,28.59c-.11.06-.11.18,0,.28L131,31.78a1.52,1.52,0,0,0,1.77.38l1.05-.61.19-.11a.18.18,0,0,0,0-.28.28.28,0,0,0-.34-.07l-.18.1-1.06.62a1,1,0,0,1-1.09-.24l-2.63-2.91a.28.28,0,0,0-.33-.07"/><path d="M139.21,33.54a.19.19,0,0,0,0,.29L149,44.72l.24.26a.28.28,0,0,0,.34.08.17.17,0,0,0,0-.28l-.24-.27-3.54-3.92-.18.1a.27.27,0,0,1-.33-.07c-.1-.1-.09-.22,0-.28l.17-.1-6-6.62a.32.32,0,0,0-.34-.08"/><path d="M138.1,28.29a.17.17,0,0,0,0,.28l8.72,9.65a.83.83,0,0,1-.09,1.34l-1.18.68-.17.1c-.11.06-.12.18,0,.28a.27.27,0,0,0,.33.07l.18-.1,1.17-.68a1.18,1.18,0,0,0,.13-1.9l-8.72-9.64a.27.27,0,0,0-.33-.08"/><path d="M127.87,32.15a.17.17,0,0,0,0,.28l3.48,3.85a2.26,2.26,0,0,0,2.65.57l.32-.19.18-.1a.18.18,0,0,0,0-.28.3.3,0,0,0-.35-.07l-.18.1-.32.19a1.68,1.68,0,0,1-2-.43l-3.48-3.85a.3.3,0,0,0-.34-.07"/><path d="M138.56,45.88l-.18.11-9.19,5.3a1.78,1.78,0,0,0-.21,2.87l3.31,3.65a.28.28,0,0,0,.34.07c.1-.05.1-.18,0-.28L129.35,54a1.43,1.43,0,0,1,.16-2.3l9.19-5.3.18-.11a.17.17,0,0,0,0-.28.3.3,0,0,0-.34-.08"/><path d="M140.5,56.05l-1.42.82a.17.17,0,0,0,0,.28.27.27,0,0,0,.33.07l1.24-.72-.15-.17a.17.17,0,0,1,0-.28m2.07-1.2-.28.16-1.79,1a.28.28,0,0,1,.34.07l.16.17,1.61-.93.27-.15a.18.18,0,0,0,0-.28.3.3,0,0,0-.34-.08"/><path d="M136.86,62.85l-1.71,1a.18.18,0,0,0,0,.28.29.29,0,0,0,.34.08l1.53-.88-.16-.18c-.09-.1-.09-.22,0-.28m3.64-6.8a.17.17,0,0,0,0,.28l.15.17,1.59,1.76a1,1,0,0,1-.11,1.55l-2.51,1.45.16.18a.19.19,0,0,1,0,.29.3.3,0,0,1-.34-.08l-.16-.18-2.38,1.38a.28.28,0,0,1,.34.07l.16.18,5.07-2.93a1.31,1.31,0,0,0,.15-2.12L141,56.29l-.16-.17a.28.28,0,0,0-.34-.07"/><path d="M137.16,60.32l-5.57,3.22a.18.18,0,0,0,0,.28.28.28,0,0,0,.34.07l5.57-3.21a1.1,1.1,0,0,1,1.29.28l.47.51.16.18a.3.3,0,0,0,.34.08.19.19,0,0,0,0-.29l-.16-.18-.47-.51a1.68,1.68,0,0,0-2-.43"/><path d="M144.6,62.91l-3.46,2a.17.17,0,0,0,0,.28.27.27,0,0,0,.33.08l3.28-1.89-.16-.18c-.1-.1-.09-.22,0-.28m3.45-2-.28.15-3.17,1.84a.26.26,0,0,1,.33.08l.16.18,3-1.74.27-.16c.1-.05.1-.18,0-.28a.28.28,0,0,0-.34-.07"/><path d="M144.6,62.91c-.11.06-.12.18,0,.28l.16.18.87,1a.92.92,0,0,1-.1,1.47l-5.64,3.25a.18.18,0,0,0,0,.28.29.29,0,0,0,.34.08l5.64-3.25a1.26,1.26,0,0,0,.13-2l-.87-1-.16-.18a.26.26,0,0,0-.33-.08"/><path d="M158.24,67.35a.14.14,0,0,1-.08.14l-.22.14,2.42,2.68a.28.28,0,0,0,.34.07.17.17,0,0,0,0-.28l-2.48-2.75m-2.08-2.3a.17.17,0,0,1,0,.28l-.18.1,1.66,1.84.23-.13a.23.23,0,0,1,.2,0l-1.88-2.08m-3.39-3.44a.17.17,0,0,0,0,.28l.24.27,2.65,2.92.18-.1a.28.28,0,0,1,.34.07L153.35,62l-.24-.27a.28.28,0,0,0-.34-.07"/><path d="M155.82,65l-.18.1-4.38,2.53a1.48,1.48,0,0,0-.17,2.38l11.14,12.32a.3.3,0,0,0,.34.07.17.17,0,0,0,0-.28l-8.82-9.76-.18.1a.28.28,0,0,1-.34-.07.17.17,0,0,1,0-.28l.18-.11-2-2.2a1.14,1.14,0,0,1,.12-1.82L156,65.43l.18-.1a.17.17,0,0,0,0-.28.28.28,0,0,0-.34-.07"/><path d="M154.57,71.34l-1.12.64-.18.11a.17.17,0,0,0,0,.28.28.28,0,0,0,.34.07l.18-.1,1.12-.65a1.67,1.67,0,0,1,1.94.42L167,83.39a.3.3,0,0,0,.34.07c.1-.06.1-.18,0-.28L157.18,71.9a2.23,2.23,0,0,0-2.61-.56"/><path d="M157.84,67.14l-.23.13-.31.18a1.12,1.12,0,0,0-.13,1.8L163.31,76a.3.3,0,0,0,.34.08c.1-.06.11-.18,0-.29l-1.87-2.06-.18.1a.3.3,0,0,1-.34-.07.18.18,0,0,1,0-.28l.19-.11L157.53,69a.76.76,0,0,1,.09-1.23l.32-.18.22-.14a.14.14,0,0,0,.08-.14.31.31,0,0,0-.06-.13.24.24,0,0,0-.14-.09.23.23,0,0,0-.2,0"/><path d="M163,72.52l-1.53.89-.19.11a.18.18,0,0,0,0,.28.3.3,0,0,0,.34.07l.18-.1,1.54-.89a1.82,1.82,0,0,1,2.14.46L169.69,78a.28.28,0,0,0,.34.08.17.17,0,0,0,0-.28l-4.21-4.66a2.42,2.42,0,0,0-2.82-.62"/><path d="M159.59,60.68a.17.17,0,0,1,0,.27l-.18.11,3.23,3.58a.3.3,0,0,0,.35.08.18.18,0,0,0,0-.28l-3.4-3.76m-2-1.88a.17.17,0,0,0,0,.28l.24.27,1.22,1.35.18-.1a.29.29,0,0,1,.34.08l-1.38-1.53-.25-.27a.27.27,0,0,0-.33-.08"/><path d="M159.25,60.6l-.18.1-.66.38a1.31,1.31,0,0,0-.15,2.09l5.37,5.94a.31.31,0,0,0,.34.07.18.18,0,0,0,0-.28L158.62,63a.94.94,0,0,1,.12-1.52l.66-.38.18-.11a.17.17,0,0,0,0-.27.29.29,0,0,0-.34-.08"/><path d="M166.71,64.6c.09.09.09.22,0,.27l-.18.11,3.19,3.52a.28.28,0,0,0,.34.08.17.17,0,0,0,0-.28l-3.35-3.7M160,57.44a.17.17,0,0,0,0,.28l.24.27,6,6.63.18-.1a.26.26,0,0,1,.33.08l-3.19-3.54-.17.1a.29.29,0,0,1-.34-.06c-.09-.11-.08-.23,0-.29l.17-.1-2.64-2.92-.24-.27a.3.3,0,0,0-.34-.08"/><path d="M166.38,64.52l-.18.1-.67.39a1.36,1.36,0,0,0-.15,2.19l5.2,5.76a.31.31,0,0,0,.35.07.18.18,0,0,0,0-.28l-1.67-1.85a.29.29,0,0,1-.29-.09.18.18,0,0,1,0-.25L165.73,67a1,1,0,0,1,.12-1.63l.67-.38.18-.11c.1-.05.1-.18,0-.27a.26.26,0,0,0-.33-.08"/><path d="M172,68.81l-3,1.72s0,0,0,0a.18.18,0,0,0,0,.25.29.29,0,0,0,.29.09l0,0,3-1.71a1.79,1.79,0,0,1,1.15-.2,1.73,1.73,0,0,1,1,.52l3.94,4.35a.29.29,0,0,0,.34.08c.1-.06.1-.18,0-.28l-3.93-4.35a2.38,2.38,0,0,0-2.83-.48"/><path d="M163.47,53.29a.18.18,0,0,0,0,.28l2.72,3A1.56,1.56,0,0,1,166,59.1l-2.79,1.61-.17.1c-.1.06-.11.18,0,.29a.29.29,0,0,0,.34.06l.17-.1,2.79-1.61c1.09-.63,1.19-2,.21-3.08l-2.71-3a.29.29,0,0,0-.34-.08"/><path d="M163.62,48.08l-2.27,1.31.15.18a.17.17,0,0,1,0,.28.3.3,0,0,1-.35-.07L161,49.6,158.63,51l-.27.16a.16.16,0,0,0,0,.27.26.26,0,0,0,.33.08l.28-.15,4.8-2.78-.16-.18a.17.17,0,0,1,0-.28m2.1-1.21-2.1,1.21a.29.29,0,0,1,.33.08l.16.17L166,47.22a.17.17,0,0,0,0-.28.27.27,0,0,0-.33-.07"/><path d="M167.5,42.81l-7,4a1.27,1.27,0,0,0-.15,2l.64.7.15.18a.3.3,0,0,0,.35.07.17.17,0,0,0,0-.28l-.15-.18-.63-.7a.91.91,0,0,1,.1-1.48l7-4.05c.11-.06.11-.18,0-.28a.28.28,0,0,0-.34-.07"/><path d="M157.62,44.11,156,45l.16.18a.17.17,0,0,1,0,.28.28.28,0,0,1-.34-.07l-.16-.18-1.45.84-.27.15a.18.18,0,0,0,0,.28.3.3,0,0,0,.34.08l.27-.16,3.23-1.86-.16-.18a.17.17,0,0,1,0-.28m2-1.14-2,1.14a.28.28,0,0,1,.34.07l.16.18,1.79-1c.11-.06.12-.18,0-.28a.29.29,0,0,0-.34-.07"/><path d="M150.36,39.07a.18.18,0,0,0,0,.29l3.3,3.65,2,2.23.16.18a.28.28,0,0,0,.34.07.17.17,0,0,0,0-.28L156,45l-2-2.23-3.3-3.65a.3.3,0,0,0-.34-.08"/><path d="M157.62,44.11a.17.17,0,0,0,0,.28l.16.18.23.25a1.79,1.79,0,0,0,2.1.45l4.46-2.57a.17.17,0,0,0,0-.28.28.28,0,0,0-.34-.07l-1.53.88.16.18a.16.16,0,0,1,0,.27.27.27,0,0,1-.33-.07l-.17-.18-2.57,1.49a1.21,1.21,0,0,1-1.42-.31l-.23-.25-.16-.18a.28.28,0,0,0-.34-.07"/><path d="M162.64,36l-2.81,1.62a1.75,1.75,0,0,0-.19,2.82l2.7,3,.17.18a.27.27,0,0,0,.33.07.16.16,0,0,0,0-.27l-.16-.18-2.71-3a1.4,1.4,0,0,1,.16-2.25L163,36.35c.11-.06.11-.18,0-.28a.28.28,0,0,0-.34-.07"/><path d="M163.62,48.08a.17.17,0,0,0,0,.28l.16.18,2.77,3.06a2.15,2.15,0,0,0,2.53.55l2.14-1.24a.17.17,0,0,0,0-.28.28.28,0,0,0-.34-.07l-2.14,1.24a1.6,1.6,0,0,1-1.86-.41l-2.76-3.06-.16-.17a.29.29,0,0,0-.33-.08"/><path d="M136.86,62.85c-.11.06-.11.18,0,.28l.16.18.33.36a.78.78,0,0,1-.09,1.26l-1.8,1a.18.18,0,0,0,0,.29.29.29,0,0,0,.34.07l1.8-1a1.13,1.13,0,0,0,.13-1.83l-.33-.36-.16-.18a.28.28,0,0,0-.34-.07"/></g></g><path class="cls-12" d="M197.88,66.44v7.34"/><path class="cls-12" d="M103.93,40.12v7.35"/><polygon class="cls-5" points="105.4 48.55 104.51 47.74 104.51 43.32 106.31 45.3 105.4 48.55"/><polygon class="cls-5" points="197.27 72.76 197.27 69.08 195.3 70.25 197.27 72.76"/><path class="cls-13" d="M315.25,137.26l-4.18,9.83-.1,0a25.41,25.41,0,0,0-8.81-1.32l4.12-6.46A44.21,44.21,0,0,0,315.25,137.26Z"/><path class="cls-14" d="M159.45,180.67c12.64,21,70.67,24.8,103.71,4.32l-100.59-9.45Z"/><path class="cls-4" d="M294.49,174.11c-96.61,38.44-125.39,9.41-147.7-7.26l20.43-20.56c20.42,12.05,42.28,25,71.31,20.29S290.81,140.2,311,147.05"/><path class="cls-14" d="M319,119.54c-2.29,3.58-16.8-2.27-13.5-6l.47-.52A22.46,22.46,0,0,0,319,119.54Z"/><path class="cls-14" d="M315.25,137.26l-.91,2.14v0c-.64,1.49-5.89,2.46-9.15,1.6l1.1-1.74,1.42-.18c.73-.1,1.46-.24,2.18-.39A48.72,48.72,0,0,0,315.25,137.26Z"/><path class="cls-14" d="M212.09,392.51c-.31,2.27-3.34,9.83-7.68,19.89h0c-14.93-3.25-21.82-17.72-21.82-17.72h0c1.17-3.65,2.12-6.43,2.81-8A256.31,256.31,0,0,0,212.09,392.51Z"/><path class="cls-14" d="M295.49,412.55c-7.36,1.4-20.57,2.37-30.1-7.64h0c-1.3-3-2.42-5.83-3.29-8.39q13.59,0,27.49-1C291.32,401.35,293.33,407.06,295.49,412.55Z"/></svg>