<svg id="Layer_1" data-name="Layer 1" xmlns="http://www.w3.org/2000/svg" xmlns:xlink="http://www.w3.org/1999/xlink" viewBox="0 0 512 512"><defs><style>.cls-1{fill:url(#linear-gradient);}.cls-2{fill:#7c7c7c;}.cls-3{fill:#1e1e1e;}.cls-4{fill:#666;}.cls-5{opacity:0.21;}.cls-6{fill:#d63030;}.cls-7{fill:#fff;}.cls-8{fill:#e5e5e5;}</style><linearGradient id="linear-gradient" x1="365.95" y1="101.72" x2="336.74" y2="187.08" gradientUnits="userSpaceOnUse"><stop offset="0.2" stop-color="#141414"/><stop offset="1" stop-color="#010101"/></linearGradient></defs><title>intro-cover</title><path class="cls-1" d="M322.39,127.34c-2.76,3-3.6,5.78-3.27,8.09,0,.14,0,.26.06.39a56.14,56.14,0,0,1-8.44,2.71L297.09,170l23.67,3.15c29.74,25.09,58.62,23.16,75.82,12.41s18.81-29.21,9.14-36.37-19.09,2.24-32-2.05c-28.67-9.55-3.27-44.2-35.16-59.25-24.22-11.43-38.31,0-38.31,10.5A21.27,21.27,0,0,0,305.93,113a22.46,22.46,0,0,0,13,6.52Z"/><path class="cls-2" d="M326.52,121.16c-.25-1.72-2.58-3.57-7.56-1.62a22.46,22.46,0,0,1-13-6.52c-6.18,6.85-14.94,16.27-9.83,23.38,2.73,3.83,9.21,3.37,14.64,2.13a56.14,56.14,0,0,0,8.44-2.71c0-.13-.05-.25-.06-.39-.33-2.31.51-5.11,3.27-8.09l.11-.07C326,125.54,326.7,122.42,326.52,121.16Z"/><path class="cls-2" d="M132.18,136.12c-4.77-3.65,6.19,19.71,24.46,20.43l5.38-5.29s-3.89-15.14-14.07-15.14c-2.06,0,8.42,11.92,3.14,10.22S141,142.84,132.18,136.12Z"/><path class="cls-2" d="M127.17,172.09c-5.26-2.9,7.72,18.9,25.9,16.9l4.54-6s-5.33-14.48-15.39-13c-2,.31,9.33,10.62,3.85,9.72S136.85,177.44,127.17,172.09Z"/><path class="cls-2" d="M185.52,386.36c-5.13,11.38-27.44,96.85-29.59,106.8-5.29,2.37-16.45,10.35-23.53,15.84a1.61,1.61,0,0,0,1.5,2.8l32.82-10.87a2.35,2.35,0,0,0,1.28-3.44L166.54,495s46.4-98,45.58-103"/><path class="cls-2" d="M289.31,394.68c13.25,44.78,41.33,81,41.33,81l6.75,2.07a2.31,2.31,0,0,1,1.26,3.46l-19.48,30.17a1.35,1.35,0,0,1-2.45-1l4-19.64c-19.62-20.7-50.8-70.42-58.86-95l4-18.54H293.1Z"/><path class="cls-3" d="M161.67,177.85l-16.5,21c21.24,11,76.34,19.89,117.73-7.8,0,0-4.47,39.78-67.46,78-39.18,23.74-130.36,49.46-80.55,84.67,70.8,50,166.06,53.06,264.4,25.53,47-13.17-48.43-84-65.51-103.47-15.09-17.18-24.74-36.61-21.84-60.23,1.15-9.37,10.47-16.67,16.65-23.1,13.44-14,22.54-38.48,2.38-45.34l-91.8,28.49-53.42-4.18-4.08,6.49"/><path class="cls-4" d="M315.25,137.26l-4.18,9.83-.1,0a25.41,25.41,0,0,0-8.81-1.32l4.12-6.46A44.21,44.21,0,0,0,315.25,137.26Z"/><path class="cls-5" d="M159.45,180.67c12.64,21,70.67,24.8,103.71,4.32l-100.59-9.45Z"/><path class="cls-3" d="M294.49,174.11c-96.61,38.44-125.39,9.41-147.7-7.26l20.43-20.56c20.42,12.05,42.28,25,71.31,20.29S290.81,140.2,311,147.05"/><path class="cls-5" d="M319,119.54c-2.29,3.58-16.8-2.27-13.5-6l.47-.52A22.46,22.46,0,0,0,319,119.54Z"/><path class="cls-5" d="M315.25,137.26l-.91,2.14v0c-.64,1.49-5.89,2.46-9.15,1.6l1.1-1.74,1.42-.18c.73-.1,1.46-.24,2.18-.39A48.72,48.72,0,0,0,315.25,137.26Z"/><path class="cls-5" d="M212.09,392.51c-.31,2.27-3.34,9.83-7.68,19.89h0c-14.93-3.25-21.82-17.72-21.82-17.72h0c1.17-3.65,2.12-6.43,2.81-8A256.31,256.31,0,0,0,212.09,392.51Z"/><path class="cls-5" d="M295.49,412.55c-7.36,1.4-20.57,2.37-30.1-7.64h0c-1.3-3-2.42-5.83-3.29-8.39q13.59,0,27.49-1C291.32,401.35,293.33,407.06,295.49,412.55Z"/><path class="cls-6" d="M364.06,113a15.13,15.13,0,0,1-5.16,5.85c-3.09-9.34-17.38-5-30.24-17.25-8.24-7.88-6.81-13.93-17.62-21.91h0c5.15-7.13,17.36-10.34,19.67-11,1-.26,24.07-6.07,31,4.09,3,4.45-.83,6.38,1,19.74C364.06,102.33,366.93,107.12,364.06,113Z"/><circle class="cls-7" cx="367.34" cy="72.06" r="10.85"/><path class="cls-7" d="M358.9,118.85c-12.76,8.08-41.14-8.32-48.83-26.74a13.24,13.24,0,0,1-1.2-7.36A11.79,11.79,0,0,1,311,79.69h0c10.81,8,9.38,14,17.62,21.91C341.52,113.89,355.81,109.51,358.9,118.85Z"/><circle class="cls-8" cx="91.21" cy="84.78" r="2.04"/><circle class="cls-8" cx="78.96" cy="113.02" r="2.89"/><circle class="cls-8" cx="78.96" cy="142.18" r="2.89"/><circle class="cls-8" cx="91.21" cy="152.15" r="2.04"/><circle class="cls-8" cx="105.21" cy="182.91" r="2.86"/><circle class="cls-8" cx="85.44" cy="52.43" r="2.43"/><circle class="cls-8" cx="46.29" cy="75.23" r="2.89"/><circle class="cls-8" cx="60.75" cy="52.43" r="1.55"/><circle class="cls-8" cx="68.24" cy="82.73" r="1.36"/><circle class="cls-8" cx="123.1" cy="159.44" r="2.89"/><circle class="cls-8" cx="148.83" cy="160.28" r="2.04"/><circle class="cls-8" cx="117.09" cy="47.4" r="2.04"/><circle class="cls-8" cx="123.1" cy="100.16" r="1.82"/><circle class="cls-8" cx="146.54" cy="65.5" r="2.59"/><circle class="cls-8" cx="162.02" cy="73.19" r="0.91"/><circle class="cls-8" cx="120.21" cy="75.74" r="0.91"/><circle class="cls-8" cx="192.84" cy="53.23" r="2.89"/><circle class="cls-8" cx="162.34" cy="38.02" r="2.89"/><circle class="cls-8" cx="159.45" cy="95.4" r="2.89"/><circle class="cls-8" cx="167.64" cy="118.85" r="1.44"/><circle class="cls-8" cx="180.06" cy="97.28" r="1.02"/><circle class="cls-8" cx="141.8" cy="123.85" r="2.04"/><circle class="cls-8" cx="174.62" cy="138.13" r="2.04"/><circle class="cls-8" cx="108.1" cy="138.13" r="2.89"/></svg>