<svg xmlns="http://www.w3.org/2000/svg" viewBox="0 0 1920 640"><defs><style>.cls-1{fill:#fff;}</style></defs><title>intro-cover_snow</title><g id="Layer_2" data-name="Layer 2"><path class="cls-1" d="M1920,624.87V640H0V573.26c71.11,23.37,183.68-8.28,314.75-21.45C477.54,535.45,613.82,553.12,710,565.6,882.8,588,985.73,605.43,985.73,605.43a1052.28,1052.28,0,0,0,190,13.78c134.43-2.65,153.44-29.7,223.66-7.66,29.56,9.28,71.78,28.38,127.18,19.62,24.93-3.94,23.72-9,45.93-10.43,40.81-2.68,88.4,11.42,118.81,12.09,22.2.49,18.43-2.19,81-9.53C1883.82,610.21,1910.59,617,1920,624.87Z"/></g></svg>