<svg id="Layer_1" data-name="Layer 1" xmlns="http://www.w3.org/2000/svg" xmlns:xlink="http://www.w3.org/1999/xlink" viewBox="0 0 519.76 528.96"><defs><style>.cls-1{fill:url(#linear-gradient);}.cls-2{fill:#e5e5e5;}</style><linearGradient id="linear-gradient" x1="441.75" y1="200.85" x2="610.99" y2="662.46" gradientTransform="translate(327.85 514.42) rotate(-38.67)" gradientUnits="userSpaceOnUse"><stop offset="0" stop-color="#fff"/><stop offset="0.34" stop-color="#fcfcfc"/><stop offset="0.54" stop-color="#f4f4f4"/><stop offset="0.7" stop-color="#e6e6e6"/><stop offset="0.85" stop-color="#d2d2d2"/><stop offset="0.98" stop-color="#b8b8b8"/><stop offset="1" stop-color="#b4b4b4"/></linearGradient></defs><title>Logo2</title><path class="cls-1" d="M1052.11,768.52c-24.92,19.94-62.06,11.64-75.78-17.18-7.36-15.43-18-33.06-33.35-52.25-66.76-83.42-108.49-80.22-171.48-158.94a201.27,201.27,0,0,1-29.89-51.55,75.52,75.52,0,0,1,23-86.84L940,261.39a49.7,49.7,0,0,1,76.4,18.5,200.71,200.71,0,0,0,26.35,43.19c63,78.72,104.73,75.52,171.49,158.94,16.62,20.77,27.71,39.71,35.09,56a75.42,75.42,0,0,1-21.65,90Z" transform="translate(-736.27 -250.49)"/><rect class="cls-2" x="922.64" y="283.46" width="72" height="8" rx="3.62" transform="translate(-705.72 411.5) rotate(-38.67)"/><rect class="cls-2" x="928.27" y="303.29" width="72" height="8" rx="3.62" transform="translate(-716.88 419.36) rotate(-38.67)"/><rect class="cls-2" x="786.59" y="454.16" width="292" height="8" rx="4" transform="translate(-818.09 432.64) rotate(-38.67)"/><rect class="cls-2" x="809.55" y="478.05" width="292" height="8" rx="4" transform="translate(-827.98 452.22) rotate(-38.67)"/><rect class="cls-2" x="838.75" y="496.95" width="292" height="8" rx="4" transform="translate(-833.38 474.62) rotate(-38.67)"/><rect class="cls-2" x="867.18" y="516.46" width="292" height="8" rx="4" transform="translate(-839.35 496.66) rotate(-38.67)"/></svg>