<svg id="Layer_1" data-name="Layer 1" xmlns="http://www.w3.org/2000/svg" xmlns:xlink="http://www.w3.org/1999/xlink" viewBox="0 0 512 512"><defs><style>.cls-1{fill:url(#linear-gradient);}.cls-2{fill:#e5e5e5;}</style><linearGradient id="linear-gradient" x1="-391.61" y1="564.95" x2="-249.53" y2="177.43" gradientTransform="matrix(0.78, -0.62, -0.62, -0.78, 745.05, 352.25)" gradientUnits="userSpaceOnUse"><stop offset="0" stop-color="#fff"/><stop offset="0.34" stop-color="#fcfcfc"/><stop offset="0.54" stop-color="#f4f4f4"/><stop offset="0.7" stop-color="#e6e6e6"/><stop offset="0.85" stop-color="#d2d2d2"/><stop offset="0.98" stop-color="#b8b8b8"/><stop offset="1" stop-color="#b4b4b4"/></linearGradient></defs><path class="cls-1" d="M303,468.87a41.64,41.64,0,0,1-63.61-14.43,226.61,226.61,0,0,0-28-43.87c-56.13-70-91.07-67.34-144-133.43a169.46,169.46,0,0,1-25.09-43.26A63.41,63.41,0,0,1,61.59,161L208.84,43.14A41.73,41.73,0,0,1,273,58.68,167.6,167.6,0,0,0,295.13,95c52.9,66.08,87.92,63.39,144,133.42a221.76,221.76,0,0,1,29.46,47.05,63.32,63.32,0,0,1-18.17,75.52Z"/><rect class="cls-2" x="194.25" y="61.63" width="60.45" height="6.72" rx="3.04" transform="translate(8.61 154.51) rotate(-38.67)"/><rect class="cls-2" x="198.99" y="78.28" width="60.45" height="6.72" rx="3.04" transform="translate(-0.75 161.12) rotate(-38.67)"/><rect class="cls-2" x="80.04" y="204.93" width="245.14" height="6.72" rx="3.35" transform="translate(-85.72 172.26) rotate(-38.67)"/><rect class="cls-2" x="99.31" y="224.99" width="245.14" height="6.72" rx="3.35" transform="translate(-94.03 188.7) rotate(-38.67)"/><rect class="cls-2" x="123.84" y="240.85" width="245.14" height="6.72" rx="3.35" transform="translate(-98.57 207.51) rotate(-38.67)"/><rect class="cls-2" x="147.71" y="257.23" width="245.14" height="6.72" rx="3.35" transform="translate(-103.57 226.01) rotate(-38.67)"/></svg>