<svg id="Layer_1" data-name="Layer 1" xmlns="http://www.w3.org/2000/svg" xmlns:xlink="http://www.w3.org/1999/xlink" viewBox="0 0 512 512"><defs><style>.cls-1{fill:#232d3d;}.cls-2{fill:url(#linear-gradient);}.cls-3{fill:#e5e5e5;}</style><linearGradient id="linear-gradient" x1="-363.8" y1="489.16" x2="-280.27" y2="261.33" gradientTransform="matrix(0.78, -0.62, -0.62, -0.78, 745.05, 352.25)" gradientUnits="userSpaceOnUse"><stop offset="0" stop-color="#fff"/><stop offset="0.34" stop-color="#fcfcfc"/><stop offset="0.54" stop-color="#f4f4f4"/><stop offset="0.7" stop-color="#e6e6e6"/><stop offset="0.85" stop-color="#d2d2d2"/><stop offset="0.98" stop-color="#b8b8b8"/><stop offset="1" stop-color="#b4b4b4"/></linearGradient></defs><rect class="cls-1" width="512" height="512"/><path class="cls-2" d="M283.6,381.15a24.5,24.5,0,0,1-37.4-8.48,133.09,133.09,0,0,0-16.46-25.79c-33-41.17-53.54-39.59-84.64-78.45A99.46,99.46,0,0,1,130.35,243a37.28,37.28,0,0,1,11.35-42.86l86.57-69.28a24.53,24.53,0,0,1,34.48,3.81A24.22,24.22,0,0,1,266,140a98.53,98.53,0,0,0,13,21.32c31.1,38.85,51.69,37.27,84.64,78.44A130.28,130.28,0,0,1,381,267.42a37.22,37.22,0,0,1-10.68,44.4Z"/><rect class="cls-3" x="219.69" y="141.73" width="35.54" height="3.95" rx="1.79" transform="translate(-37.73 179.88) rotate(-38.67)"/><rect class="cls-3" x="222.48" y="151.52" width="35.54" height="3.95" rx="1.79" transform="translate(-43.23 183.77) rotate(-38.67)"/><rect class="cls-3" x="152.55" y="225.98" width="144.12" height="3.95" rx="1.97" transform="translate(-93.19 190.32) rotate(-38.67)"/><rect class="cls-3" x="163.88" y="237.77" width="144.12" height="3.95" rx="1.97" transform="translate(-98.07 199.99) rotate(-38.67)"/><rect class="cls-3" x="178.3" y="247.1" width="144.12" height="3.95" rx="1.97" transform="translate(-100.74 211.04) rotate(-38.67)"/><rect class="cls-3" x="192.33" y="256.73" width="144.12" height="3.95" rx="1.97" transform="translate(-103.68 221.92) rotate(-38.67)"/></svg>