<svg xmlns="http://www.w3.org/2000/svg" viewBox="0 0 1536 512"><defs><style>.cls-1{fill:#f5f5f5;}.cls-2{fill:#ebe6f5;}.cls-10,.cls-11,.cls-13,.cls-14,.cls-15,.cls-16,.cls-21,.cls-22,.cls-3,.cls-7,.cls-8{fill:none;}.cls-3{stroke:#ebe6f5;stroke-width:4px;}.cls-13,.cls-3{stroke-miterlimit:10;}.cls-4{fill:#f37e53;}.cls-5{fill:#212121;}.cls-6{fill:#5a4ad1;}.cls-16,.cls-7{stroke:#333;}.cls-10,.cls-11,.cls-14,.cls-15,.cls-16,.cls-21,.cls-22,.cls-7,.cls-8{stroke-linecap:round;stroke-linejoin:round;}.cls-14,.cls-15,.cls-8{stroke:#0f0f0f;}.cls-16,.cls-21,.cls-8{stroke-width:2px;}.cls-9{fill:#0f0f0f;}.cls-10{stroke:#040202;}.cls-11{stroke:#ebe0d8;}.cls-12{fill:#d6d6d6;}.cls-13{stroke:#fcfcfc;}.cls-14{stroke-width:1.5px;}.cls-17{fill:#333;}.cls-18{opacity:0.25;}.cls-19{fill:#c6c6c6;}.cls-20{fill:#f9f9f9;}.cls-21{stroke:#000;}.cls-22{stroke:#303030;}</style></defs><title>more-materials-cover</title><g id="Layer_1" data-name="Layer 1"><rect class="cls-1" width="1536" height="512"/><path class="cls-2" d="M1287.47,512c101.06-134.36,99.2-292.67,24.51-363.6-79-75-222-35.66-262.47-24.51C996.22,138.56,917,160.37,883,228.06,843.22,307.46,878.68,424,972.91,512"/><path class="cls-3" d="M702.28,512C687.77,481.05,614.57,317,690,159.64,727.23,82,788.11,32.08,853.37,0"/><path class="cls-3" d="M1383.47,0a288.58,288.58,0,0,1,70.47,60.57c94.11,112,100.61,291,14.29,451.43"/><path class="cls-3" d="M609.44,0C509.35,114.7,388.84,237.3,493,512"/><path class="cls-3" d="M376.73,0C244,110.62,166.34,242.38,235.79,512"/><path class="cls-3" d="M187.5,0C77.2,114.7-4.5,254.64,99.67,512"/></g><g id="Layer_2" data-name="Layer 2"><path class="cls-4" d="M1099.93,316.53c-13.25-13.24-20.5-27.77-20.77-36.88s-20.59-7.15-20.59-7.15l14.08,55.26Z"/><path class="cls-5" d="M1120,422.21c-.71,4.9-20.78,78.77-21.51,89.79h130.15c-1.83-10.4-16.9-64.72-20.22-80.89l-.32-6.06-84-7Z"/><path class="cls-6" d="M1119.25,359.64l1.38.17c-1.82,1.56-13.16,42-11.34,54.21.45,3,4.44,5.79,10.66,8.18h0c20.54,7.89,65.5,11.81,88.42,8.9,8-1,13.32-2.86,14-5.65,3.11-13.26-1-66.28-3.94-80.39-9.93-6.6-18.22-16.44-21.5-27.57-5.3,1.85-17.22.23-23.41-2.63a193.75,193.75,0,0,0-20.87-.86l-1.35,0h-.17c-1.6,0-3.2.06-4.78.11q-4.21.15-8.3.37-2.49.14-4.92.3l-3.44.23-3.38.23-1.66.13-6,.42c-.15,0-.31,0-.47,0l-3.12.21-2.33.14c-4.7,14.85-6.2,29.85-3.61,41.93l1.1.19c2.13.36,4.22.67,6.25.94l2.26.31Z"/><path class="cls-7" d="M1209.84,266.28c3.36.64,4.14,3.22,4.63,5.56"/><path class="cls-4" d="M1196.91,297.13c2.12-6.9,6.54-13.83,13.9-20.43,5,.58,10.78-2.36,9.26-9.29-1.94-8.87-11.3-7.61-13.64-6.63s-25.21-7.22-34.65-23.54a24.64,24.64,0,0,1-1.54-3.14C1152.24,254.26,1151.08,304.93,1196.91,297.13Z"/><line class="cls-7" x1="1170.24" y1="234.1" x2="1170.24" y2="234.1"/><path class="cls-8" d="M1175.76,260.94c0,4.61-6.3,7.08-12.6,5.34"/><circle class="cls-9" cx="1190.4" cy="265.55" r="1.15"/><circle class="cls-9" cx="1168.71" cy="254.34" r="1.73"/><rect class="cls-9" x="1171.85" y="245.72" width="3.31" height="8.43" rx="1.66" transform="translate(2156.14 -438.55) rotate(132.96)"/><path class="cls-10" d="M1150.68,369.15c7.72,2.61,2.54,12.09-3.9,9.75S1142.88,366.52,1150.68,369.15Z"/><path class="cls-11" d="M1161.34,390s.84,3.9-.39,6.43-4.62,4.09-4.62,4.09a6.44,6.44,0,0,1,0-6.17A8.87,8.87,0,0,1,1161.34,390Z"/><path class="cls-11" d="M1186,366.49s3.42,2.06,4.42,4.69-.18,6.17-.18,6.17a6.44,6.44,0,0,1-4.5-4.23A8.88,8.88,0,0,1,1186,366.49Z"/><path class="cls-12" d="M1012.61,297.94c15.47,25.14,25.54,65.19,11.43,92-3.52,6.71-.5,11,2.35,12.08,8,3.09,24.34-25.81,22.16-59.52a95.43,95.43,0,0,0-1.3-10.58l11.32-39.71,12.24-12.05,28-27.59,12.8-42.74c-12.32-6.79-27.46-7.39-42.41-3.6a60.3,60.3,0,0,1-7.42,5.76c-4.5,3-10.36,6.23-15.9,7.29a16.6,16.6,0,0,1-6,.18C1012.67,237.73,994.9,269.14,1012.61,297.94Z"/><path class="cls-12" d="M1099.45,223.8c-5,11.64.1,28.81,10.37,33.59,11.78,5.48,26.26-.7,32.33-13.79s1.43-28.12-10.36-33.59S1106.3,208,1099.45,223.8Z"/><path class="cls-13" d="M1111.64,209.86c-4.88,2.47-9.19,7-12.19,13.94a27.58,27.58,0,0,0-1.5,15.41"/><path class="cls-9" d="M1138.41,214.8a23.09,23.09,0,0,1,4.95,8.23c2-1.45,8.16-8,6-10.1C1147.71,211.41,1142.82,212.53,1138.41,214.8Z"/><circle class="cls-9" cx="1139.02" cy="236.87" r="1.46"/><circle class="cls-9" cx="1128.72" cy="237.16" r="1.46"/><rect class="cls-9" x="1123.23" y="227.46" width="4.44" height="9.07" rx="2.22" transform="translate(1555.42 1297.64) rotate(-123.62)"/><rect class="cls-9" x="1137.43" y="226.29" width="4.44" height="9.07" rx="2.22" transform="translate(1755.18 -755.68) rotate(110.51)"/><ellipse class="cls-9" cx="1134.37" cy="245.54" rx="2.86" ry="4.87" transform="translate(775.68 1349.37) rotate(-84.21)"/><path class="cls-8" d="M1121.51,242.75c-.72,2.73.15,5.91,3.94,8.18"/><path class="cls-14" d="M1121.9,222.08c-5.07-3.18-11.18-7.08-13-4.41s.91,9.87,3.51,12.6"/><path class="cls-9" d="M1119.62,224.16s-6.66-6.29-8.22-4.47.95,6,3.94,8.7Z"/><path class="cls-15" d="M1134.26,248.11a7.54,7.54,0,0,1-.76,3.8"/><path class="cls-12" d="M1047.25,332a95.43,95.43,0,0,1,1.3,10.58c9.28,12.35,22.61,15.35,20.43,4.36C1059.88,342.93,1052.1,338,1047.25,332Z"/><path class="cls-7" d="M1069,350.7c-2.7-1.85-7.37-4.51-9.19-4.84"/><path class="cls-10" d="M1198.89,408.63c-.13,3.44-1.49,8-7.92,8.44a8.43,8.43,0,0,1-9.17-6.88l2.72-2.94,2.68,3.07,2.92-3.51,3.38,3.89,2.4-3.57Z"/><path class="cls-10" d="M1175.23,345.56c-.09,2.32-1,5.4-5.35,5.7a5.69,5.69,0,0,1-6.19-4.65l1.83-2,1.81,2.07,2-2.37,2.28,2.63,1.62-2.41Z"/><polyline class="cls-10" points="1201.85 352.58 1208.67 352.58 1207.99 359.21 1213.93 359.21 1213.45 367.5 1218.58 367.82 1218.26 374.58 1221.86 374.58"/><path class="cls-16" d="M1138,186.72c-.21-15.62,14.93-27.12,38.07-49.7,8-7.8-14.56-32.17-69.06,23-16,16.18,7.79,34.69,25.53,22.61C1132.5,182.63,1134.35,183.21,1138,186.72Z"/><line class="cls-16" x1="1113.85" y1="168.92" x2="1123.73" y2="176.98"/><path class="cls-16" d="M1115.36,170.15c8.37-12.6,14.22-1.37,4,3.23"/><path class="cls-16" d="M1125.42,161c4.42,3.64,8.71,6.09,11.3,3.37s-2.59-6-6.23-7.79"/><path class="cls-16" d="M1132.11,152.22c2.28,1.69,12.61,7.54,12.61,7.54"/><path class="cls-16" d="M1133.7,153.28c2.76-3.46,4.65-5,6.86-3.53s.51,5.66-.91,6.82c0,0,4.94-2.66,7.47-3"/><path class="cls-16" d="M1143.81,142c1.56,1,10.13,7.25,10.59,7.17"/><path class="cls-16" d="M1145.78,143.37c1.54-3.49,3.16-6.09,6.21-5.12s.39,7.64-.75,8.95c0,0,5.43-3.23,7.19-3.23"/><ellipse class="cls-17" cx="1163.23" cy="138.87" rx="0.91" ry="1.07" transform="translate(461.35 1076.83) rotate(-60)"/><ellipse class="cls-17" cx="1166.14" cy="136.85" rx="0.76" ry="0.86" transform="translate(464.55 1078.34) rotate(-60)"/><ellipse class="cls-17" cx="1169.01" cy="135.01" rx="0.64" ry="0.75" transform="translate(467.58 1079.9) rotate(-60)"/><path class="cls-18" d="M1117.59,368c2.36.69,18.67-3.72,20.22-7a168.8,168.8,0,0,1-17.18-1.26C1120.15,360.23,1119,363.39,1117.59,368Z"/><path class="cls-11" d="M1206.23,334.28a52.07,52.07,0,0,1-4.71-6.52C1198.83,330.46,1192.69,337.51,1206.23,334.28Z"/><path class="cls-11" d="M1152.24,314c.21,2.28,4.68,7.75,4.68,7.75a51.5,51.5,0,0,0,2.93-7.72q-3.63-.07-7.22,0Z"/><path class="cls-10" d="M1109.11,331c17.47,2.07,17.4-9.08,10.78-15.24"/><path class="cls-10" d="M1119.14,421.88c4.33-12.08,2.67-24.86-7.41-30.58"/><path class="cls-19" d="M1030.55,365.92h0c15.85-6,7.91-15.84-.87-20.85h0A94.61,94.61,0,0,1,1030.55,365.92Z"/><path class="cls-4" d="M1173.5,314.87c6.19,2.86,18.11,4.48,23.41,2.63a34.9,34.9,0,0,1,0-20.37c-8.66,1.47-15.64.86-21.15-1.25C1178.56,301.09,1176.86,309,1173.5,314.87Z"/><path class="cls-19" d="M1005.71,269.35s11.45-2.88,13.33-14.33c2.31-14,9.62-13,20-14.22,14.26-1.66,42.44-13.45,40.6-36.44a77.42,77.42,0,0,0-10.43,1.91c-2.29,2.28-18.11,15.15-29.3,13.23C1021.6,231.75,1007.56,250,1005.71,269.35Z"/><path class="cls-19" d="M1109.82,257.39c10.07,11,20.3,21.35,25.06,30.2a9,9,0,0,0,7.77-3.18,5.66,5.66,0,0,0,.43-.54,8.41,8.41,0,0,0,1.52-3.3c1.79-8.32-9.79-18-16.88-22.94A22.26,22.26,0,0,1,1109.82,257.39Z"/><path class="cls-19" d="M1080.13,259.53a113.47,113.47,0,0,0,6.83,10c14.72,19.42,39.45,42.44,47.41,34.66,4.55-4.44,4-10.08.51-16.55-4.76-8.85-15-19.23-25.06-30.2-6.18-2.88-10.51-10.24-11.87-18.18-5.88,2.12-7.63,6.46-7.5,9.71s.14,9.24-10.09,10.47Z"/><path class="cls-12" d="M1071.71,264.37a32,32,0,0,0,7.45-6.5,29.62,29.62,0,0,1-3.39-7.94A62.09,62.09,0,0,0,1071.71,264.37Z"/><path class="cls-20" d="M1071.08,284.41c5.19-1.61,12.39-9.56,15.88-14.93a113.47,113.47,0,0,1-6.83-10c-.35-.57-.67-1.12-1-1.66a32,32,0,0,1-7.45,6.5A80.49,80.49,0,0,0,1071.08,284.41Z"/><path class="cls-5" d="M1170.24,234.1a24.64,24.64,0,0,0,1.54,3.14c9.44,16.32,32.31,24.51,34.65,23.54s11.7-2.24,13.64,6.63c1.52,6.93-4.28,9.87-9.26,9.29-7.36,6.6-11.78,13.53-13.9,20.43a34.9,34.9,0,0,0,0,20.37c3.28,11.13,11.57,21,21.5,27.57,13.71,9.12,30.57,12.07,41.81,3.71,22.75-16.89,11.51-48.34-12.47-63.54,19.89-29.24-4.48-49-4.48-49,7.92-12.47-2.08-22.09-8.45-24s-21.39.5-18.71,10.53c-12.73-9.88-29-5.33-29-5.33s-7.21-8.54-14.81-1.43C1167.9,220.11,1167.49,227.38,1170.24,234.1Z"/><path class="cls-4" d="M1046.4,330.85c.27.37.56.74.85,1.11,4.85,6,12.63,11,21.73,14.94a154.9,154.9,0,0,0,26.43,8.48h0c4.64,1.08,9.24,2,13.68,2.74-2.59-12.09-1.09-27.08,3.61-41.93-16.43.93-28.92.44-34.08-6.92-3.82-5.46-6.64-14.7-7.56-25.09-.12-1.31-.21-2.64-.25-4-.42-10.11,1-20.95,5-30.27-6.89-14.53-5.22-35.2-5.72-39.41a23,23,0,0,0-.83-4.25c-.63-2-1.58-3.05-3.07-3.05-2.25,0-3.86,1.71-5.13,8.52,1.51-8.65-6.47-11.72-7.8,3,.55-8.54-5.88-11-7.41,4.06.5-7.13-5.79-10.64-5.89.68a59.46,59.46,0,0,0,1.36,11.89c1.42,7.1,9,9.7,6.68,18.54C1045.34,259.85,1030.28,308.76,1046.4,330.85Z"/><path class="cls-18" d="M1095.41,355.38h0c4.64,1.08,9.24,2,13.68,2.74a69,69,0,0,1-.65-22.48h0C1104.6,338.62,1096,352.55,1095.41,355.38Z"/><path class="cls-21" d="M1144.6,280.57a32.94,32.94,0,0,1-7.3-5.08"/><path class="cls-21" d="M1142.66,284.41c-2.7-1.51-5.93-3.72-6.62-4.76"/><path class="cls-21" d="M1136.77,300.79a25.13,25.13,0,0,0-5.32-5.67"/><path class="cls-21" d="M1133.66,304.73c-1.76-2.27-4.75-5.2-5.65-5.59"/><path class="cls-12" d="M1095.26,279.58a167.16,167.16,0,0,0,12.38,12.67h0C1108.92,286.74,1107.14,278.67,1095.26,279.58Z"/><path class="cls-18" d="M1176.57,307.08c6.07-.09,13.42-4.9,13.94-9.22-1.31.08-2.58.09-3.8.06-.24,0-.49,0-.73,0l-.9-.05-.55,0-.81-.08-.5-.05c-.23,0-.46-.05-.68-.09a29.14,29.14,0,0,1-3.37-.64l-.69-.17-.72-.21-.68-.21c-.45-.15-.89-.3-1.32-.47C1177.43,299,1177.5,303.06,1176.57,307.08Z"/><path class="cls-22" d="M1071.08,284.4c.94,10.31,3.75,19.46,7.54,24.88s11.25,7,21.31,7.25"/></g></svg>