<svg id="Layer_1" data-name="Layer 1" xmlns="http://www.w3.org/2000/svg" xmlns:xlink="http://www.w3.org/1999/xlink" viewBox="0 0 512 512"><defs><style>.cls-1{fill:#232d3d;}.cls-2{fill:url(#linear-gradient);}.cls-3{fill:#e5e5e5;}</style><linearGradient id="linear-gradient" x1="-265.77" y1="23.77" x2="-182.24" y2="251.6" gradientTransform="matrix(0.78, -0.62, 0.62, 0.78, 350.97, 12.29)" gradientUnits="userSpaceOnUse"><stop offset="0" stop-color="#fff"/><stop offset="0.34" stop-color="#fcfcfc"/><stop offset="0.54" stop-color="#f4f4f4"/><stop offset="0.7" stop-color="#e6e6e6"/><stop offset="0.85" stop-color="#d2d2d2"/><stop offset="0.98" stop-color="#b8b8b8"/><stop offset="1" stop-color="#b4b4b4"/></linearGradient></defs><title>Logo</title><rect class="cls-1" width="512" height="512" rx="115.15"/><path class="cls-2" d="M283.6,381.15a24.49,24.49,0,0,1-37.4-8.48,133,133,0,0,0-16.46-25.79c-33-41.17-53.54-39.59-84.64-78.45A99.45,99.45,0,0,1,130.35,243a37.28,37.28,0,0,1,11.35-42.86l86.57-69.28A24.53,24.53,0,0,1,266,140a98.84,98.84,0,0,0,13,21.32c31.1,38.85,51.69,37.27,84.64,78.44a130.2,130.2,0,0,1,17.32,27.66,37.22,37.22,0,0,1-10.68,44.4Z"/><rect class="cls-3" x="219.7" y="141.74" width="35.54" height="3.95" rx="1.79" transform="translate(-37.74 179.88) rotate(-38.67)"/><rect class="cls-3" x="222.48" y="151.53" width="35.54" height="3.95" rx="1.79" transform="translate(-43.24 183.76) rotate(-38.67)"/><rect class="cls-3" x="152.55" y="225.99" width="144.12" height="3.95" rx="1.97" transform="translate(-93.2 190.31) rotate(-38.67)"/><rect class="cls-3" x="163.88" y="237.78" width="144.12" height="3.95" rx="1.97" transform="translate(-98.08 199.98) rotate(-38.67)"/><rect class="cls-3" x="178.3" y="247.11" width="144.12" height="3.95" rx="1.97" transform="translate(-100.75 211.03) rotate(-38.67)"/><rect class="cls-3" x="192.33" y="256.74" width="144.12" height="3.95" rx="1.97" transform="translate(-103.69 221.91) rotate(-38.67)"/></svg>